<svg xmlns="http://www.w3.org/2000/svg" viewBox="38276.44 12985.45 2823.83 1881.02" preserveAspectRatio="xMidYMid meet" data-origin="38276.44,12985.45"><path d="M41024.37,13202.20L40982.78,13213.37L41001.46,13281.49L41028.01,13275.07L41060.66,13560.91L41095.27,13680.88L41079.24,13680.88L41059.97,13681.21L41050.82,13682.32L41036.47,13685.08L41030.67,13686.30L41027.91,13689.39L41023.78,13692.38L41018.96,13695.14L41012.97,13699.12L41009.92,13701.33L41008.54,13703.66L41007.56,13705.87L41006.97,13708.85L41007.46,13711.84L41016.31,13727.54L41026.24,13743.80L41028.31,13747.00L41030.67,13751.42L41033.42,13757.40L41035.78,13761.71L41038.53,13765.69L41044.04,13771.88L41053.77,13784.04L41057.21,13788.58L41061.93,13792.56L41067.24,13797.20L41070.59,13799.75L41065.97,13803.28L41062.92,13805.50L41059.57,13808.04L41057.02,13810.80L41056.72,13823.19L41056.62,13832.48L41056.53,13838.23L41056.62,13841.21L41054.36,13847.18L41051.02,13853.48L41040.30,13869.19L41034.60,13876.71L41022.90,13889.20L41018.08,13892.30L41011.00,13898.49L41006.97,13902.03L40987.30,13911.31L40976.19,13915.85L40965.08,13919.94L40947.28,13934.20L40943.84,13936.64L40940.40,13938.96L40934.30,13940.95L40925.45,13940.95L40919.85,13940.06L40910.70,13937.08L40890.84,13928.90L40872.84,13924.25L40864.29,13923.48L40841.97,13923.59L40827.32,13921.60L40824.37,13921.93L40821.61,13922.37L40819.06,13923.15L40816.40,13923.92L40814.24,13925.47L40787.79,13942.50L40781.40,13947.47L40771.37,13954.77L40766.06,13957.53L40753.77,13962.84L40741.18,13965.83L40722.99,13968.92L40711.19,13970.25L40693.78,13971.25L40676.67,13971.58L40659.76,13973.13L40645.01,13980.20L40643.14,13981.64L40634.69,13990.93L40632.52,13993.47L40621.71,14016.14L40616.00,14026.98L40599.39,14052.74L40590.54,14067.22L40578.74,14083.70L40570.28,14088.01L40561.04,14094.31L40553.17,14100.29L40544.32,14108.03L40538.42,14112.01L40533.70,14115.55L40528.20,14120.85L40525.34,14123.84L40520.03,14129.59L40514.92,14134.56L40514.04,14135.89L40507.64,14141.09L40503.02,14144.40L40498.20,14148.16L40492.50,14151.70L40488.17,14153.69L40485.32,14155.13L40481.39,14156.90L40477.85,14159.66L40475.10,14162.98L40473.43,14166.19L40470.87,14175.48L40466.94,14183.22L40461.43,14190.96L40451.30,14201.90L40445.11,14210.97L40442.35,14213.51L40434.09,14219.26L40423.77,14225.01L40413.34,14229.33L40407.54,14231.76L40399.78,14234.30L40443.63,14301.31L40484.14,14369.75L40482.96,14371.08L40474.41,14381.25L40465.26,14390.10L40449.92,14401.82L40425.34,14420.40L40397.91,14437.43L40380.90,14447.49L40353.17,14459.54L40313.44,14477.45L40290.82,14483.98L40275.49,14486.85L40259.06,14490.39L40238.51,14497.91L40217.27,14507.53L40197.41,14515.49L40174.79,14522.13L40155.23,14523.67L40132.32,14527.76L40125.14,14529.76L40143.72,14333.60L40134.48,14332.82L40123.56,14333.60L40112.94,14333.93L40104.29,14335.48L40093.38,14338.24L40083.84,14342.22L40072.83,14346.53L40061.52,14350.63L40047.95,14353.39L40026.71,14356.49L40006.85,14357.48L39994.55,14359.80L39979.80,14359.91L39969.58,14358.92L39954.83,14357.48L39940.08,14355.49L39925.03,14352.62L39908.91,14351.18L39896.52,14351.18L39882.85,14351.95L39855.12,14353.83L39842.73,14356.60L39821.49,14358.70L39802.71,14362.46L39787.57,14366.11L39770.07,14370.09L39751.58,14373.96L39734.47,14373.29L39715.29,14372.08L39699.46,14367.65L39681.27,14360.91L39664.46,14351.84L39652.07,14341.89L39641.06,14337.69L39629.45,14335.48L39616.37,14335.03L39600.25,14334.81L39584.91,14337.58L39572.91,14341.34L39559.83,14343.44L39553.25,14345.21L39540.27,14356.71L39528.96,14361.24L39517.06,14369.53L39497.49,14374.84L39474.58,14380.48L39455.80,14386.45L39441.74,14393.31L39421.19,14406.13L39406.93,14423.05L39398.08,14435.66L39386.77,14448.15L39378.02,14455.67L39362.68,14461.20L39349.31,14465.18L39337.02,14472.48L39323.35,14483.54L39312.04,14493.04L39297.09,14502.89L39286.57,14509.41L39275.26,14518.15L39266.02,14528.65L39260.32,14539.71L39253.44,14549.66L39242.52,14564.70L39230.23,14582.50L39219.71,14597.76L39207.12,14611.69L39198.96,14622.75L39186.96,14633.81L39176.34,14640.77L39161.00,14644.31L39148.61,14645.19L39136.52,14644.64L39124.23,14649.18L39114.00,14652.05L39101.32,14649.29L39089.91,14641.32L39086.17,14636.13L39081.65,14630.16L39075.16,14618.21L39067.59,14613.46L39058.64,14617.33L39050.78,14622.75L39038.48,14623.30L39030.62,14622.42L39015.57,14620.20L39004.27,14621.42L38989.12,14627.72L38975.55,14636.57L38954.71,14652.60L38937.99,14669.19L38920.29,14684.45L38899.74,14699.49L38881.65,14710.54L38863.55,14722.60L38848.31,14731.11L38829.14,14742.61L38808.00,14754.22L38796.79,14759.75L38789.81,14763.73L38772.11,14775.78L38752.24,14786.07L38732.77,14794.14L38713.89,14800.77L38692.26,14804.09L38672.69,14805.08L38652.14,14806.96L38636.41,14808.73L38618.61,14812.60L38605.93,14814.37L38590.19,14818.13L38571.41,14823.77L38557.06,14830.52L38540.24,14836.05L38517.63,14843.34L38500.81,14848.43L38486.36,14853.18L38473.67,14856.06L38451.15,14859.16L38436.80,14861.37L38424.02,14861.48L38407.99,14861.04L38395.30,14861.04L38383.01,14861.15L38363.64,14860.48L38357.45,14860.48L38352.63,14859.93L38349.48,14858.71L38346.14,14857.72L38342.79,14856.72L38340.24,14855.51L38336.60,14854.07L38332.76,14851.86L38328.04,14849.09L38324.80,14847.10L38320.57,14844.12L38316.15,14841.35L38310.94,14838.48L38309.17,14837.70L38306.31,14836.49L38304.35,14835.49L38299.43,14832.51L38294.22,14828.97L38290.88,14826.98L38287.53,14824.77L38284.29,14823.00L38282.52,14820.01L38281.93,14817.58L38281.44,14814.37L38281.44,14810.06L38282.71,14806.63L38284.29,14803.87L38286.06,14801.33L38288.12,14798.34L38293.04,14789.60L38294.42,14787.06L38298.35,14779.32L38301.20,14771.14L38303.66,14765.39L38306.81,14756.10L38312.21,14738.63L38317.03,14722.82L38322.44,14706.89L38324.21,14702.36L38326.08,14700.15L38329.13,14698.16L38331.98,14697.05L38335.03,14695.62L38359.61,14681.57L38373.57,14659.02L38411.33,14586.48L38432.67,14527.99L38449.29,14476.35L38454.01,14463.30L38460.10,14450.36L38464.04,14435.33L38469.74,14415.31L38464.92,14399.17L38463.05,14390.65L38461.87,14382.91L38461.09,14374.51L38460.30,14370.53L38458.82,14362.46L38457.15,14356.04L38455.78,14346.53L38454.50,14340.01L38453.12,14333.82L38453.02,14331.27L38452.73,14323.65L38452.63,14318.56L38452.53,14313.91L38452.63,14308.61L38452.63,14306.17L38452.83,14300.42L38452.92,14293.68L38453.02,14285.61L38452.92,14276.65L38453.12,14265.15L38453.42,14253.98L38454.10,14244.03L38454.40,14238.95L38455.09,14236.29L38456.27,14229.99L38457.84,14225.46L38460.59,14217.72L38462.27,14212.52L38462.76,14209.98L38464.23,14202.24L38464.43,14197.48L38464.33,14194.05L38463.54,14184.54L38462.86,14175.81L38462.36,14170.39L38463.25,14167.07L38464.63,14163.64L38468.07,14155.13L38470.72,14147.61L38472.20,14144.29L38474.95,14138.10L38476.13,14134.56L38476.92,14131.58L38477.70,14126.60L38478.59,14122.84L38479.38,14120.63L38481.83,14114.88L38483.21,14112.56L38489.31,14102.61L38493.24,14095.86L38494.62,14092.88L38506.12,14097.52L38537.29,14108.69L38554.11,14116.87L38579.87,14128.48L38601.40,14139.32L38618.22,14148.83L38631.99,14159.66L38643.88,14170.39L38652.14,14185.32L38670.43,14213.73L38696.39,14241.60L38714.29,14254.20L38732.09,14261.61L38739.95,14262.61L38760.21,14262.06L38784.79,14263.16L38818.03,14264.60L38851.75,14268.25L38878.80,14271.34L38900.03,14273.22L38921.57,14276.65L38938.09,14279.64L38949.40,14281.85L38954.90,14272.01L38959.43,14265.04L38965.42,14256.08L38970.73,14249.78L38981.85,14240.71L38992.27,14233.20L39004.17,14223.69L39013.51,14213.40L39020.19,14205.88L39029.83,14192.17L39038.19,14184.88L39050.28,14180.34L39059.33,14176.58L39066.71,14172.60L39073.59,14167.51L39079.29,14162.10L39083.72,14155.57L39087.06,14148.83L39096.89,14126.49L39098.37,14115.77L39097.68,14098.30L39096.99,14093.87L39094.93,14089.34L39092.57,14084.36L39088.63,14079.61L39067.49,14055.84L39053.73,14040.91L39050.09,14034.94L39042.22,14022.22L39039.27,14015.25L39036.91,14007.29L39035.53,14000.99L39033.08,13980.53L39030.13,13951.34L39028.95,13942.17L39029.44,13931.66L39029.44,13921.16L39029.44,13913.42L39030.22,13908.22L39034.16,13908.88L39054.71,13911.09L39068.67,13910.54L39087.45,13908.77L39088.63,13921.71L39088.73,13943.38L39091.78,13956.87L39093.94,13977.11L39103.58,13996.24L39119.71,14013.93L39138.88,14025.10L39160.32,14027.75L39183.92,14025.87L39211.25,14017.02L39238.49,14001.76L39259.04,13992.92L39281.56,13986.62L39319.42,13972.79L39352.45,13963.62L39388.35,13954.55L39411.94,13947.69L39428.07,13943.93L39448.92,13940.84L39465.04,13938.29L39486.58,13935.75L39506.74,13932.43L39536.43,13927.57L39551.67,13924.69L39556.39,13923.26L39563.47,13920.49L39567.50,13918.17L39576.75,13915.19L39583.93,13913.64L39590.61,13909.88L39596.51,13906.89L39602.80,13901.58L39607.82,13897.05L39615.00,13889.09L39620.60,13884.11L39628.08,13877.81L39632.99,13872.84L39638.30,13866.53L39646.96,13859.01L39652.07,13855.48L39657.57,13852.71L39662.49,13849.73L39668.49,13846.19L39672.72,13844.64L39676.16,13841.99L39681.27,13838.89L39685.01,13835.68L39689.83,13831.70L39693.37,13828.38L39697.01,13824.62L39702.81,13820.64L39712.15,13813.13L39718.34,13806.38L39724.44,13801.07L39731.62,13793.11L39745.09,13778.85L39752.56,13771.55L39761.61,13763.26L39769.87,13756.51L39777.34,13751.76L39788.26,13744.90L39797.20,13738.71L39799.86,13736.17L39811.95,13726.10L39820.41,13720.35L39829.26,13714.16L39836.73,13707.86L39854.43,13694.26L39872.92,13681.54L39897.80,13668.16L39902.42,13663.96L39913.33,13654.12L39922.87,13647.15L39930.93,13640.63L39943.32,13635.10L39956.99,13629.79L39970.27,13624.26L39981.28,13618.51L39994.36,13611.44L40012.65,13596.62L40016.68,13594.41L40029.56,13586.89L40040.87,13579.59L40045.49,13575.28L40060.04,13567.76L40063.39,13566.55L40072.43,13563.23L40083.15,13559.69L40097.90,13555.38L40105.96,13552.61L40113.14,13550.62L40119.43,13548.08L40125.73,13545.54L40133.99,13542.55L40143.72,13538.24L40155.42,13531.49L40167.03,13522.76L40179.22,13511.70L40199.28,13496.88L40221.89,13483.84L40238.61,13471.34L40253.85,13455.09L40264.37,13440.82L40268.70,13436.51L40281.88,13424.79L40294.36,13414.95L40299.87,13412.18L40310.20,13407.43L40321.11,13404.44L40328.78,13402.90L40341.37,13403.34L40358.48,13404.55L40360.54,13402.45L40392.79,13375.69L40433.60,13342.08L40469.10,13313.00L40506.37,13281.71L40513.74,13272.97L40523.38,13259.92L40527.61,13254.73L40531.34,13251.63L40535.87,13249.42L40538.81,13248.42L40542.26,13248.42L40545.01,13249.09L40546.98,13250.86L40548.35,13253.84L40548.16,13258.60L40544.52,13267.33L40538.72,13280.60L40535.08,13289.12L40540.09,13288.12L40546.98,13283.03L40557.50,13270.32L40572.74,13258.26L40574.31,13256.50L40587.98,13244.00L40594.86,13236.92L40598.80,13231.51L40602.43,13226.20L40607.55,13216.69L40616.30,13207.18L40623.28,13199.88L40630.75,13194.91L40637.54,13192.92L40642.65,13191.92L40647.96,13191.59L40656.12,13191.37L40662.12,13190.81L40666.94,13190.81L40677.17,13191.04L40686.21,13191.48L40692.41,13192.47L40698.01,13192.69L40699.49,13192.47L40703.13,13191.15L40706.76,13188.93L40710.11,13185.62L40711.48,13180.42L40711.68,13171.91L40711.29,13164.94L40710.70,13159.74L40710.89,13153.66L40712.76,13143.49L40715.81,13134.97L40717.09,13130.77L40718.96,13127.01L40721.02,13123.70L40724.56,13117.73L40736.36,13104.46L40748.95,13093.73L40760.55,13087.43L40769.40,13082.89L40777.37,13079.91L40793.29,13074.27L40796.93,13073.27L40806.86,13071.28L40819.94,13069.96L40831.84,13068.96L40845.71,13068.08L40858.29,13068.08L40863.21,13067.08L40867.24,13065.09L40870.39,13061.77L40872.45,13057.57L40875.40,13048.28L40878.35,13037.12L40881.60,13029.38L40885.23,13022.08L40891.72,13013.56L40896.44,13008.81L40905.88,13003.06L40908.74,13001.07L40919.06,12992.56L40922.01,12990.45L40923.39,12994.55L40925.45,13000.52L40930.96,13006.71L40933.71,13012.90L40936.46,13018.87L40939.22,13024.40L40944.72,13034.57L40949.54,13041.32L40953.67,13051.05L40959.18,13065.98L40965.37,13081.68L40968.62,13090.63L40972.06,13098.15L40974.72,13106.34L40980.02,13116.07L40988.28,13128.23L40996.84,13138.96L41002.84,13145.48L41005.69,13148.69L41007.85,13150.46L41009.92,13152.89L41013.06,13156.65L41014.64,13158.64L41016.80,13160.85L41018.57,13163.83L41020.24,13167.04L41021.62,13171.02L41022.70,13174.34L41023.39,13176.55L41023.29,13180.53L41022.80,13185.84L41022.80,13190.04L41023.09,13195.02L41023.78,13199.00L41024.37,13202.20Z" fill="#f5eedd" stroke="#aaa" stroke-width="2" stroke-dasharray="4 3"/><g fill="#2d2d2d" stroke="#111" stroke-width="0.6" fill-opacity="0.85"><path d="M40321.50,13429.21L40321.50,13422.58L40333.30,13423.68L40336.25,13423.68L40336.25,13427.00L40337.24,13427.00L40336.25,13430.32L40335.27,13430.32L40335.27,13436.95L40332.32,13436.95L40324.45,13436.95L40321.50,13435.85L40321.50,13435.85L40320.52,13435.85L40321.50,13429.21Z" /><path d="M39367.70,14139.10L39364.75,14140.20L39362.78,14136.89L39366.71,14135.78L39367.70,14139.10Z" /><path d="M39292.96,14161.21L39293.95,14161.21L39294.93,14160.11L39302.80,14156.79L39302.80,14156.79L39303.78,14156.79L39305.75,14161.21L39306.73,14163.42L39306.73,14163.42L39307.71,14165.64L39307.71,14166.74L39308.70,14166.74L39309.68,14168.95L39298.86,14174.48L39298.86,14174.48L39296.90,14171.16L39296.90,14170.06L39295.91,14168.95L39295.91,14168.95L39292.96,14162.32L39292.96,14161.21L39292.96,14161.21Z" /><path d="M39291.00,14132.46L39293.95,14137.99L39291.00,14139.10L39284.11,14142.41L39281.16,14136.89L39280.18,14133.57L39289.03,14129.15L39291.00,14132.46Z" /><path d="M39246.75,14156.79L39246.75,14156.79L39246.75,14154.58L39248.72,14153.47L39250.68,14152.37L39250.68,14151.26L39252.65,14150.15L39252.65,14150.15L39253.63,14151.26L39253.63,14152.37L39253.63,14152.37L39253.63,14153.47L39255.60,14159.00L39256.58,14160.11L39256.58,14160.11L39253.63,14162.32L39250.68,14163.42L39246.75,14164.53L39246.75,14163.42L39244.78,14159.00L39244.78,14159.00L39243.80,14157.89L39243.80,14156.79L39242.82,14154.58L39245.77,14153.47L39246.75,14156.79Z" /><path d="M39376.55,14123.62L39380.48,14121.41L39383.43,14120.30L39384.41,14124.72L39385.40,14125.83L39386.38,14128.04L39387.36,14132.46L39384.41,14133.57L39381.46,14134.67L39378.51,14135.78L39376.55,14132.46L39375.56,14130.25L39378.51,14129.15L39377.53,14126.93L39375.56,14128.04L39373.60,14124.72L39376.55,14123.62Z" /><path d="M39880.98,13921.27L39881.97,13919.06L39890.82,13883.67L39890.82,13883.67L39897.70,13883.67L39898.68,13885.88L39899.67,13889.20L39899.67,13891.41L39898.68,13898.05L39895.73,13909.10L39894.75,13915.74L39893.77,13916.84L39889.83,13920.16L39887.87,13920.16L39884.92,13923.48L39880.98,13921.27Z" /><path d="M39714.80,14107.03L39714.80,14105.93L39719.72,14100.40L39722.67,14098.19L39722.67,14098.19L39726.60,14101.50L39728.57,14103.71L39726.60,14104.82L39732.50,14110.35L39724.64,14118.09L39720.70,14112.56L39714.80,14118.09L39713.82,14114.77L39711.85,14110.35L39714.80,14107.03Z" /><path d="M39820.02,14037.37L39820.02,14032.95L39820.02,14028.52L39822.97,14028.52L39822.97,14032.95L39829.85,14032.95L39829.85,14038.48L39829.85,14044.00L39825.92,14044.00L39825.92,14041.79L39820.02,14041.79L39820.02,14037.37Z" /><path d="M39678.42,14093.76L39676.45,14087.13L39684.32,14084.92L39684.32,14083.81L39684.32,14084.92L39685.30,14088.23L39686.29,14091.55L39678.42,14093.76Z" /><path d="M39479.79,14107.03L39483.73,14104.82L39484.71,14104.82L39486.68,14107.03L39492.58,14118.09L39492.58,14118.09L39488.64,14123.62L39487.66,14123.62L39483.73,14126.93L39475.86,14108.14L39479.79,14107.03Z" /><path d="M40982.29,13814.01L40986.22,13812.90L40991.14,13828.38L40988.19,13829.49L40986.22,13829.49L40983.27,13819.54L40971.47,13822.86L40970.49,13817.33L40970.49,13817.33L40964.59,13807.38L40971.47,13804.06L40964.59,13800.74L40970.49,13793.00L40978.35,13800.74L40976.39,13802.95L40982.29,13814.01Z" /><path d="M38884.89,14400.05L38889.81,14405.58L38887.84,14408.90L38885.88,14408.90L38886.86,14406.69L38882.93,14404.47L38878.99,14406.69L38878.99,14406.69L38886.86,14411.11L38883.91,14415.53L38880.96,14414.43L38880.96,14415.53L38878.99,14414.43L38878.99,14413.32L38876.04,14411.11L38878.01,14408.90L38874.08,14406.69L38874.08,14406.69L38874.08,14407.79L38875.06,14410.00L38874.08,14410.00L38875.06,14412.22L38874.08,14412.22L38873.09,14411.11L38871.13,14411.11L38870.14,14408.90L38871.13,14407.79L38872.11,14406.69L38869.16,14402.26L38875.06,14398.95L38875.06,14398.95L38882.93,14395.63L38884.89,14400.05Z" /><path d="M39237.90,14301.64L39240.85,14299.43L39241.83,14301.64L39244.78,14306.06L39246.75,14311.59L39246.75,14316.02L39246.75,14316.02L39245.77,14317.12L39245.77,14318.23L39245.77,14319.33L39245.77,14321.54L39244.78,14322.65L39244.78,14323.76L39242.82,14323.76L39238.88,14323.76L39238.88,14321.54L39237.90,14321.54L39235.93,14312.70L39234.95,14307.17L39233.97,14303.85L39237.90,14301.64Z" /><path d="M39377.53,14191.07L39377.53,14191.07L39380.48,14187.75L39381.46,14188.86L39381.46,14189.96L39386.38,14187.75L39388.35,14193.28L39388.35,14193.28L39380.48,14196.60L39378.51,14193.28L39377.53,14191.07Z" /><path d="M39372.61,14173.38L39370.65,14170.06L39374.58,14166.74L39377.53,14171.16L39376.55,14172.27L39378.51,14174.48L39379.50,14173.38L39380.48,14174.48L39381.46,14174.48L39384.41,14181.12L39385.40,14183.33L39376.55,14187.75L39373.60,14183.33L39377.53,14182.22L39375.56,14178.90L39371.63,14180.01L39369.66,14176.69L39371.63,14175.59L39370.65,14174.48L39372.61,14173.38Z" /><path d="M39380.48,14196.60L39373.60,14199.91L39371.63,14196.60L39378.51,14193.28L39380.48,14196.60Z" /><path d="M39359.83,14199.91L39355.90,14194.38L39358.85,14192.17L39359.83,14191.07L39363.76,14197.70L39363.76,14197.70L39359.83,14199.91Z" /><path d="M39079.59,14465.29L39082.54,14464.18L39085.49,14463.08L39088.44,14463.08L39090.40,14461.97L39095.32,14460.87L39098.27,14459.76L39099.25,14461.97L39099.25,14463.08L39096.30,14463.08L39091.39,14465.29L39092.37,14469.71L39091.39,14470.82L39090.40,14470.82L39090.40,14470.82L39089.42,14470.82L39089.42,14473.03L39084.50,14474.14L39084.50,14471.93L39084.50,14471.93L39081.55,14473.03L39077.62,14474.14L39075.65,14467.50L39075.65,14466.40L39079.59,14465.29Z" /><path d="M38978.31,14500.67L38984.21,14498.46L38987.16,14498.46L38995.02,14492.93L38996.99,14496.25L38992.07,14499.57L38992.07,14499.57L38991.09,14499.57L38994.04,14506.20L38987.16,14509.52L38985.19,14505.10L38983.22,14501.78L38979.29,14502.89L38978.31,14500.67Z" /><path d="M38964.54,14480.77L38964.54,14479.67L38968.47,14467.50L38973.39,14469.71L38968.47,14480.77L38968.47,14480.77L38967.49,14481.88L38964.54,14480.77Z" /><path d="M38866.21,14452.02L38863.26,14456.44L38859.33,14455.34L38856.38,14454.23L38857.36,14452.02L38857.36,14450.92L38859.33,14447.60L38860.31,14447.60L38863.26,14443.18L38869.16,14447.60L38866.21,14452.02Z" /><path d="M38758.05,14579.18L38756.08,14579.18L38755.10,14575.86L38752.15,14568.12L38766.89,14563.70L38767.88,14567.02L38763.95,14568.12L38764.93,14571.44L38760.01,14572.55L38761.00,14574.76L38762.96,14573.65L38760.01,14578.08L38758.05,14579.18Z" /><path d="M38524.02,14438.75L38524.02,14436.54L38523.03,14427.70L38527.95,14427.70L38527.95,14431.01L38536.80,14431.01L38540.73,14431.01L38540.73,14436.54L38540.73,14437.65L38544.67,14438.75L38544.67,14435.44L38546.63,14435.44L38547.62,14437.65L38558.43,14439.86L38558.43,14454.23L38575.15,14458.66L38611.53,14467.50L38609.57,14473.03L38575.15,14465.29L38558.43,14460.87L38533.85,14455.34L38535.82,14445.39L38533.85,14445.39L38525.00,14445.39L38524.02,14445.39L38518.12,14445.39L38518.12,14447.60L38514.18,14447.60L38510.25,14447.60L38509.27,14442.07L38520.08,14442.07L38520.08,14438.75L38524.02,14438.75Z" /><path d="M38878.01,14455.34L38878.01,14449.81L38882.93,14449.81L38887.84,14449.81L38886.86,14459.76L38878.01,14459.76L38878.01,14455.34Z" /><path d="M39363.76,14130.25L39364.75,14132.46L39361.80,14132.46L39361.80,14130.25L39363.76,14130.25Z" /><path d="M39077.62,14029.63L39074.67,14025.21L39076.64,14024.10L39070.74,14014.15L39068.77,14014.15L39063.85,14006.41L39055.99,13990.93L39062.87,13987.61L39073.69,14009.73L39085.49,14026.31L39081.55,14029.63L39079.59,14028.52L39077.62,14029.63Z" /><path d="M39330.33,14214.29L39331.31,14213.18L39333.28,14215.39L39330.33,14217.60L39331.31,14217.60L39334.26,14215.39L39333.28,14213.18L39335.25,14212.08L39335.25,14212.08L39339.18,14217.60L39337.21,14219.82L39336.23,14217.60L39330.33,14220.92L39327.38,14215.39L39325.41,14212.08L39328.36,14210.97L39330.33,14214.29Z" /><path d="M39295.91,14142.41L39297.88,14149.05L39298.86,14149.05L39300.83,14154.58L39297.88,14155.68L39291.98,14159.00L39290.01,14154.58L39290.01,14153.47L39289.03,14152.37L39286.08,14146.84L39285.10,14143.52L39293.95,14139.10L39295.91,14142.41Z" /><path d="M39082.54,14234.19L39085.49,14235.30L39084.50,14239.72L39081.55,14239.72L39082.54,14234.19Z" /><path d="M39179.88,14267.36L39182.83,14261.83L39184.80,14264.05L39195.62,14270.68L39195.62,14271.79L39196.60,14271.79L39195.62,14275.10L39193.65,14274.00L39191.68,14272.89L39191.68,14272.89L39190.70,14272.89L39189.72,14271.79L39189.72,14271.79L39188.73,14270.68L39187.75,14272.89L39183.82,14270.68L39183.82,14269.57L39183.82,14268.47L39184.80,14267.36L39183.82,14267.36L39182.83,14268.47L39181.85,14268.47L39179.88,14267.36Z" /><path d="M39077.62,14306.06L39085.49,14306.06L39089.42,14310.49L39084.50,14313.80L39077.62,14306.06L39077.62,14306.06Z" /><path d="M38929.14,14454.23L38931.11,14456.44L38923.24,14461.97L38921.27,14459.76L38916.36,14463.08L38915.37,14461.97L38913.41,14458.66L38912.42,14456.44L38925.21,14447.60L38929.14,14454.23Z" /><path d="M38800.33,14435.44L38801.31,14421.06L38805.24,14421.06L38805.24,14423.27L38810.16,14422.17L38810.16,14431.01L38804.26,14431.01L38804.26,14435.44L38800.33,14435.44Z" /><path d="M38527.95,14533.85L38556.47,14527.21L38560.40,14541.59L38530.90,14548.22L38527.95,14533.85Z" /><path d="M39682.35,14130.25L39697.10,14121.41L39703.00,14118.09L39711.85,14109.24L39713.82,14114.77L39716.77,14122.51L39717.75,14125.83L39717.75,14125.83L39714.80,14128.04L39714.80,14126.93L39703.00,14131.36L39704.97,14135.78L39698.09,14139.10L39694.15,14129.15L39685.30,14134.67L39687.27,14140.20L39679.40,14144.63L39674.49,14135.78L39682.35,14130.25Z" /><path d="M39665.64,13989.82L39660.72,13984.29L39665.64,13980.98L39669.57,13987.61L39667.60,13988.72L39665.64,13989.82Z" /><path d="M39651.87,14150.15L39651.87,14152.37L39648.92,14153.47L39643.02,14153.47L39643.02,14151.26L39645.97,14151.26L39644.99,14147.94L39642.04,14149.05L39641.06,14140.20L39649.91,14139.10L39651.87,14150.15Z" /><path d="M40782.68,13631.56L40786.61,13631.56L40786.61,13633.77L40791.52,13633.77L40789.56,13647.04L40780.71,13645.94L40782.68,13631.56Z" /><path d="M39938.01,13958.86L39938.01,13958.86L39939.98,13961.07L39941.95,13962.18L39941.95,13963.28L39937.03,13969.92L39933.10,13973.24L39926.21,13979.87L39925.23,13980.98L39923.26,13978.77L39927.20,13975.45L39925.23,13974.34L39929.16,13971.02L39929.16,13969.92L39938.01,13958.86Z" /><path d="M40200.56,13835.02L40210.39,13836.12L40210.39,13846.08L40202.52,13846.08L40203.51,13841.65L40204.49,13841.65L40204.49,13839.44L40199.57,13839.44L40200.56,13835.02Z" /><path d="M39317.55,14217.60L39323.45,14214.29L39324.43,14216.50L39326.40,14220.92L39326.40,14220.92L39327.38,14223.13L39322.46,14226.45L39321.48,14224.24L39319.51,14225.35L39318.53,14222.03L39316.56,14223.13L39312.63,14216.50L39315.58,14215.39L39317.55,14216.50L39317.55,14216.50L39317.55,14217.60Z" /><path d="M39629.26,14157.89L39628.27,14151.26L39630.24,14150.15L39631.22,14154.58L39634.17,14153.47L39633.19,14147.94L39641.06,14146.84L39643.02,14155.68L39629.26,14157.89Z" /><path d="M39256.58,14152.37L39260.52,14150.15L39259.53,14147.94L39263.47,14145.73L39264.45,14149.05L39262.48,14150.15L39263.47,14152.37L39266.42,14152.37L39268.38,14157.89L39262.48,14160.11L39259.53,14161.21L39258.55,14160.11L39256.58,14160.11L39255.60,14159.00L39253.63,14153.47L39253.63,14152.37L39253.63,14152.37L39255.60,14151.26L39256.58,14152.37Z" /><path d="M39360.81,14210.97L39362.78,14208.76L39360.81,14206.55L39360.81,14206.55L39362.78,14204.34L39362.78,14204.34L39366.71,14207.65L39366.71,14208.76L39365.73,14208.76L39364.75,14209.86L39362.78,14212.08L39360.81,14210.97Z" /><path d="M39004.86,14361.35L39005.84,14360.25L39008.79,14356.93L39008.79,14355.82L39008.79,14355.82L39011.74,14351.40L39011.74,14358.03L39011.74,14358.03L39011.74,14359.14L39009.77,14362.46L39006.82,14367.99L39005.84,14366.88L39002.89,14364.67L39004.86,14361.35Z" /><path d="M38973.39,14403.37L38976.34,14401.16L38980.27,14398.95L38980.27,14398.95L38984.21,14405.58L38983.22,14406.69L38983.22,14406.69L38978.31,14410.00L38973.39,14412.22L38972.41,14410.00L38969.46,14406.69L38973.39,14403.37Z" /><path d="M38988.14,14402.26L38985.19,14398.95L38992.07,14394.52L38994.04,14396.73L38994.04,14396.73L38994.04,14397.84L38988.14,14402.26Z" /><path d="M38958.64,14411.11L38957.66,14410.00L38966.51,14406.69L38967.49,14407.79L38969.46,14406.69L38972.41,14410.00L38973.39,14412.22L38969.46,14414.43L38967.49,14415.53L38966.51,14415.53L38964.54,14416.64L38963.56,14416.64L38961.59,14416.64L38958.64,14411.11Z" /><path d="M38956.67,14422.17L38955.69,14421.06L38952.74,14422.17L38953.72,14424.38L38948.81,14426.59L38945.86,14421.06L38948.81,14419.96L38946.84,14416.64L38958.64,14411.11L38961.59,14416.64L38961.59,14418.85L38961.59,14419.96L38956.67,14422.17Z" /><path d="M38978.31,14307.17L38974.37,14311.59L38974.37,14311.59L38972.41,14312.70L38970.44,14313.80L38968.47,14314.91L38962.57,14309.38L38960.61,14307.17L38960.61,14306.06L38958.64,14304.96L38963.56,14301.64L38964.54,14303.85L38964.54,14303.85L38970.44,14300.54L38978.31,14306.06L38978.31,14307.17L38978.31,14307.17Z" /><path d="M38975.36,14310.49L38975.36,14309.38L38978.31,14307.17L38978.31,14307.17L38978.31,14306.06L38979.29,14307.17L38980.27,14308.28L38982.24,14310.49L38984.21,14314.91L38987.16,14319.33L38987.16,14319.33L38982.24,14322.65L38982.24,14322.65L38978.31,14323.76L38975.36,14318.23L38974.37,14318.23L38973.39,14317.12L38973.39,14316.02L38973.39,14316.02L38971.42,14313.80L38972.41,14312.70L38974.37,14311.59L38974.37,14311.59L38975.36,14310.49Z" /><path d="M38980.27,14333.71L38980.27,14331.50L38978.31,14327.07L38977.32,14324.86L38982.24,14322.65L38987.16,14319.33L38990.11,14329.28L38990.11,14331.50L38984.21,14332.60L38980.27,14333.71Z" /><path d="M38982.24,14343.66L38982.24,14341.45L38981.26,14337.02L38980.27,14333.71L38984.21,14332.60L38985.19,14338.13L38990.11,14337.02L38990.11,14341.45L38990.11,14343.66L38982.24,14343.66Z" /><path d="M38984.21,14359.14L38978.31,14351.40L38979.29,14351.40L38982.24,14346.98L38982.24,14343.66L38990.11,14343.66L38989.12,14346.98L38989.12,14352.51L38985.19,14358.03L38984.21,14359.14Z" /><path d="M38979.29,14362.46L38976.34,14356.93L38977.32,14355.82L38975.36,14354.72L38978.31,14351.40L38984.21,14359.14L38979.29,14362.46Z" /><path d="M38989.12,14306.06L38986.17,14300.54L38989.12,14299.43L38993.06,14304.96L38994.04,14306.06L38995.02,14309.38L38991.09,14310.49L38989.12,14307.17L38989.12,14306.06Z" /><path d="M39002.89,14312.70L39006.82,14321.54L39000.92,14322.65L39000.92,14321.54L38996.99,14322.65L38996.01,14319.33L38995.02,14319.33L38993.06,14316.02L38991.09,14310.49L38995.02,14309.38L39000.92,14307.17L39002.89,14312.70Z" /><path d="M39000.92,14322.65L39006.82,14321.54L39009.77,14329.28L39005.84,14330.39L39004.86,14331.50L39001.91,14332.60L39000.92,14332.60L38996.99,14322.65L39000.92,14321.54L39000.92,14322.65Z" /><path d="M38999.94,14341.45L38999.94,14340.34L39001.91,14339.24L39004.86,14339.24L39011.74,14338.13L39009.77,14346.98L39002.89,14345.87L39002.89,14344.77L39000.92,14344.77L38999.94,14341.45Z" /><path d="M38999.94,14350.29L38999.94,14348.08L39001.91,14349.19L39002.89,14345.87L39009.77,14346.98L39007.81,14353.61L39007.81,14353.61L39006.82,14354.72L39003.87,14358.03L38999.94,14355.82L38997.97,14354.72L38997.97,14354.72L38999.94,14350.29Z" /><path d="M38999.94,14355.82L39003.87,14358.03L39001.91,14361.35L39000.92,14362.46L38998.96,14364.67L38993.06,14360.25L38992.07,14359.14L38989.12,14356.93L38992.07,14352.51L38992.07,14352.51L38997.97,14354.72L38997.97,14354.72L38999.94,14355.82Z" /><path d="M38989.12,14373.51L38984.21,14364.67L38989.12,14356.93L38992.07,14359.14L38993.06,14360.25L38998.96,14364.67L38995.02,14369.09L38989.12,14373.51L38989.12,14373.51Z" /><path d="M38979.29,14366.88L38981.26,14365.77L38984.21,14364.67L38989.12,14373.51L38982.24,14375.73L38980.27,14376.83L38976.34,14377.94L38973.39,14369.09L38979.29,14366.88Z" /><path d="M38969.46,14374.62L38968.47,14370.20L38969.46,14370.20L38973.39,14369.09L38975.36,14373.51L38976.34,14377.94L38969.46,14380.15L38969.46,14380.15L38963.56,14381.25L38962.57,14381.25L38960.61,14372.41L38962.57,14372.41L38965.52,14371.30L38966.51,14374.62L38969.46,14374.62Z" /><path d="M38961.59,14377.94L38962.57,14381.25L38951.76,14385.68L38950.77,14382.36L38949.79,14375.73L38955.69,14374.62L38960.61,14372.41L38961.59,14377.94Z" /><path d="M38934.06,14380.15L38934.06,14375.73L38940.94,14375.73L38941.92,14375.73L38945.86,14375.73L38949.79,14375.73L38951.76,14385.68L38941.92,14386.78L38937.01,14385.68L38933.07,14383.47L38934.06,14380.15Z" /><path d="M39005.84,14330.39L39009.77,14329.28L39010.76,14331.50L39011.74,14335.92L39011.74,14338.13L39004.86,14339.24L39001.91,14339.24L39000.92,14333.71L39001.91,14333.71L39001.91,14332.60L39005.84,14330.39Z" /><path d="M38996.01,14339.24L38999.94,14338.13L38999.94,14339.24L38999.94,14340.34L38999.94,14341.45L39000.92,14344.77L38996.01,14344.77L38993.06,14344.77L38994.04,14334.81L38996.01,14334.81L38996.01,14339.24Z" /><path d="M38943.89,14334.81L38943.89,14334.81L38948.81,14338.13L38949.79,14338.13L38952.74,14340.34L38952.74,14340.34L38953.72,14341.45L38951.76,14345.87L38946.84,14342.55L38942.91,14349.19L38942.91,14348.08L38934.06,14342.55L38939.96,14332.60L38943.89,14334.81Z" /><path d="M38948.81,14332.60L38948.81,14332.60L38949.79,14332.60L38951.76,14333.71L38955.69,14335.92L38952.74,14340.34L38948.81,14338.13L38948.81,14338.13L38943.89,14334.81L38942.91,14334.81L38939.96,14332.60L38941.92,14328.18L38944.87,14330.39L38948.81,14332.60Z" /><path d="M38945.86,14329.28L38953.72,14333.71L38956.67,14328.18L38956.67,14327.07L38957.66,14328.18L38959.62,14329.28L38955.69,14335.92L38944.87,14330.39L38941.92,14328.18L38942.91,14328.18L38946.84,14320.44L38949.79,14322.65L38947.82,14325.97L38947.82,14325.97L38945.86,14329.28Z" /><path d="M38963.56,14346.98L38952.74,14340.34L38952.74,14340.34L38955.69,14335.92L38959.62,14329.28L38959.62,14329.28L38964.54,14331.50L38967.49,14342.55L38963.56,14346.98Z" /><path d="M38923.24,14366.88L38925.21,14362.46L38927.17,14363.56L38930.12,14359.14L38938.97,14365.77L38936.02,14370.20L38930.12,14365.77L38928.16,14367.99L38930.12,14370.20L38934.06,14372.41L38932.09,14375.73L38928.16,14373.51L38922.26,14369.09L38923.24,14366.88Z" /><path d="M38947.82,14325.97L38947.82,14325.97L38949.79,14322.65L38950.77,14322.65L38951.76,14322.65L38953.72,14323.76L38954.71,14324.86L38956.67,14327.07L38956.67,14328.18L38953.72,14333.71L38945.86,14329.28L38947.82,14325.97Z" /><path d="M38949.79,14313.80L38952.74,14309.38L38955.69,14307.17L38955.69,14307.17L38955.69,14307.17L38957.66,14308.28L38967.49,14318.23L38963.56,14321.54L38960.61,14324.86L38957.66,14322.65L38952.74,14320.44L38950.77,14319.33L38946.84,14317.12L38949.79,14313.80Z" /><path d="M38967.49,14333.71L38965.52,14329.28L38963.56,14327.07L38960.61,14324.86L38963.56,14321.54L38967.49,14318.23L38972.41,14322.65L38974.37,14325.97L38977.32,14330.39L38967.49,14333.71Z" /><path d="M38979.29,14342.55L38978.31,14344.77L38978.31,14345.87L38976.34,14349.19L38974.37,14346.98L38974.37,14346.98L38970.44,14343.66L38970.44,14341.45L38967.49,14333.71L38977.32,14330.39L38979.29,14339.24L38979.29,14341.45L38979.29,14342.55Z" /><path d="M38961.59,14352.51L38965.52,14349.19L38970.44,14343.66L38974.37,14346.98L38974.37,14346.98L38968.47,14352.51L38969.46,14353.61L38970.44,14355.82L38969.46,14356.93L38966.51,14359.14L38964.54,14356.93L38962.57,14354.72L38960.61,14353.61L38961.59,14352.51Z" /><path d="M38948.81,14363.56L38952.74,14361.35L38952.74,14360.25L38954.71,14359.14L38960.61,14353.61L38962.57,14354.72L38964.54,14356.93L38966.51,14359.14L38959.62,14366.88L38960.61,14369.09L38958.64,14370.20L38955.69,14371.30L38950.77,14372.41L38946.84,14372.41L38942.91,14373.51L38941.92,14370.20L38948.81,14363.56Z" /><path d="M38981.26,14414.43L38980.27,14412.22L38983.22,14410.00L38987.16,14408.90L38989.12,14413.32L38990.11,14416.64L38990.11,14417.74L38987.16,14419.96L38987.16,14418.85L38985.19,14419.96L38988.14,14424.38L38983.22,14426.59L38985.19,14433.22L38993.06,14431.01L38994.04,14436.54L38987.16,14437.65L38986.17,14437.65L38982.24,14426.59L38980.27,14422.17L38977.32,14415.53L38981.26,14414.43Z" /><path d="M39001.91,14412.22L39000.92,14408.90L39011.74,14404.47L39012.72,14408.90L39002.89,14413.32L39001.91,14412.22Z" /><path d="M39015.67,14437.65L39020.59,14438.75L39019.60,14442.07L39018.62,14446.49L39006.82,14444.28L39008.79,14436.54L39015.67,14437.65Z" /><path d="M39017.64,14412.22L39020.59,14411.11L39020.59,14414.43L39021.57,14417.74L39021.57,14417.74L39025.50,14423.27L39022.55,14424.38L39024.52,14428.80L39024.52,14431.01L39027.47,14429.91L39028.45,14433.22L39020.59,14436.54L39017.64,14428.80L39016.66,14426.59L39015.67,14423.27L39017.64,14422.17L39014.69,14414.43L39017.64,14412.22Z" /><path d="M39042.22,14447.60L39043.20,14444.28L39048.12,14445.39L39048.12,14442.07L39049.10,14436.54L39054.02,14436.54L39054.02,14442.07L39055.00,14442.07L39058.94,14442.07L39057.95,14445.39L39057.95,14446.49L39057.95,14450.92L39057.95,14452.02L39055.00,14452.02L39055.00,14452.02L39051.07,14452.02L39051.07,14450.92L39047.14,14450.92L39047.14,14452.02L39042.22,14450.92L39042.22,14447.60Z" /><path d="M39057.95,14453.13L39066.80,14454.23L39065.82,14459.76L39056.97,14459.76L39056.97,14454.23L39057.95,14453.13Z" /><path d="M38991.09,14256.31L38986.17,14251.88L38992.07,14244.14L38993.06,14245.25L38996.01,14240.83L38997.97,14243.04L38995.02,14246.35L38994.04,14247.46L38996.99,14249.67L38995.02,14251.88L38991.09,14256.31Z" /><path d="M38968.47,14275.10L38965.52,14272.89L38970.44,14266.26L38981.26,14274.00L38979.29,14277.31L38982.24,14279.53L38979.29,14282.84L38978.31,14281.74L38973.39,14290.58L38972.41,14289.48L38971.42,14292.80L38961.59,14286.16L38963.56,14283.95L38965.52,14285.06L38968.47,14280.63L38968.47,14279.53L38967.49,14278.42L38966.51,14278.42L38968.47,14275.10Z" /><path d="M39055.00,14189.96L39061.89,14183.33L39062.87,14184.43L39070.74,14184.43L39069.75,14187.75L39067.79,14186.64L39067.79,14188.86L39063.85,14193.28L39063.85,14192.17L39060.90,14195.49L39062.87,14196.60L39059.92,14201.02L39058.94,14199.91L39056.97,14202.12L39055.00,14201.02L39054.02,14202.12L39053.04,14203.23L39049.10,14199.91L39049.10,14198.81L39050.09,14197.70L39052.05,14194.38L39053.04,14192.17L39055.00,14189.96Z" /><path d="M39076.64,14171.16L39079.59,14174.48L39076.64,14175.59L39078.60,14177.80L39075.65,14181.12L39070.74,14183.33L39066.80,14177.80L39066.80,14177.80L39075.65,14170.06L39076.64,14171.16Z" /><path d="M39044.19,14228.66L39045.17,14228.66L39045.17,14228.66L39046.15,14229.77L39048.12,14231.98L39048.12,14231.98L39049.10,14233.09L39050.09,14234.19L39049.10,14236.40L39046.15,14236.40L39046.15,14236.40L39043.20,14235.30L39042.22,14235.30L39042.22,14235.30L39040.25,14238.61L39040.25,14238.61L39036.32,14237.51L39031.40,14235.30L39034.35,14229.77L39036.32,14223.13L39038.29,14217.60L39045.17,14219.82L39043.20,14228.66L39044.19,14228.66L39044.19,14228.66L39044.19,14228.66Z" /><path d="M39029.44,14244.14L39026.49,14243.04L39031.40,14235.30L39036.32,14237.51L39040.25,14238.61L39036.32,14245.25L39029.44,14244.14Z" /><path d="M39043.20,14251.88L39040.25,14251.88L39040.25,14252.99L39040.25,14252.99L39038.29,14255.20L39031.40,14266.26L39026.49,14262.94L39034.35,14252.99L39039.27,14245.25L39045.17,14248.57L39044.19,14252.99L39043.20,14251.88Z" /><path d="M39055.00,14252.99L39051.07,14256.31L39048.12,14252.99L39047.14,14252.99L39048.12,14248.57L39049.10,14246.35L39050.09,14246.35L39054.02,14239.72L39055.99,14240.83L39058.94,14241.93L39060.90,14243.04L39058.94,14246.35L39055.99,14251.88L39055.00,14252.99Z" /><path d="M39060.90,14240.83L39066.80,14243.04L39064.84,14246.35L39058.94,14252.99L39058.94,14254.09L39055.99,14254.09L39055.00,14252.99L39055.99,14251.88L39058.94,14246.35L39060.90,14243.04L39060.90,14240.83Z" /><path d="M39068.77,14247.46L39068.77,14247.46L39068.77,14243.04L39078.60,14244.14L39078.60,14250.78L39078.60,14250.78L39077.62,14252.99L39077.62,14254.09L39073.69,14252.99L39071.72,14252.99L39068.77,14252.99L39068.77,14249.67L39068.77,14247.46Z" /><path d="M39072.70,14252.99L39073.69,14252.99L39075.65,14252.99L39077.62,14254.09L39076.64,14258.52L39076.64,14258.52L39075.65,14265.15L39075.65,14265.15L39075.65,14264.05L39074.67,14264.05L39072.70,14262.94L39070.74,14262.94L39067.79,14261.83L39067.79,14261.83L39068.77,14252.99L39071.72,14252.99L39072.70,14252.99Z" /><path d="M39071.72,14270.68L39076.64,14271.79L39075.65,14278.42L39070.74,14277.31L39068.77,14277.31L39067.79,14279.53L39067.79,14283.95L39061.89,14285.06L39060.90,14279.53L39061.89,14276.21L39061.89,14270.68L39062.87,14276.21L39066.80,14276.21L39067.79,14270.68L39071.72,14270.68Z" /><path d="M39053.04,14269.57L39055.00,14265.15L39056.97,14266.26L39056.97,14265.15L39060.90,14266.26L39058.94,14271.79L39053.04,14269.57Z" /><path d="M39017.64,14289.48L39018.62,14287.27L39021.57,14282.84L39021.57,14282.84L39021.57,14282.84L39022.55,14277.31L39022.55,14277.31L39021.57,14277.31L39018.62,14271.79L39024.52,14265.15L39030.42,14274.00L39026.49,14276.21L39025.50,14277.31L39026.49,14277.31L39026.49,14279.53L39031.40,14281.74L39030.42,14283.95L39028.45,14288.37L39028.45,14288.37L39027.47,14289.48L39026.49,14290.58L39025.50,14289.48L39025.50,14290.58L39022.55,14291.69L39021.57,14291.69L39019.60,14292.80L39018.62,14292.80L39017.64,14292.80L39016.66,14292.80L39015.67,14292.80L39017.64,14289.48Z" /><path d="M39062.87,14327.07L39059.92,14330.39L39053.04,14320.44L39052.05,14319.33L39058.94,14313.80L39066.80,14324.86L39062.87,14327.07Z" /><path d="M39037.30,14328.18L39043.20,14324.86L39043.20,14324.86L39044.19,14325.97L39045.17,14327.07L39045.17,14328.18L39046.15,14329.28L39046.15,14331.50L39039.27,14334.81L39035.34,14328.18L39033.37,14330.39L39032.39,14330.39L39030.42,14327.07L39027.47,14323.76L39030.42,14321.54L39033.37,14324.86L39034.35,14323.76L39037.30,14328.18Z" /><path d="M39039.27,14360.25L39040.25,14354.72L39040.25,14354.72L39042.22,14354.72L39044.19,14354.72L39046.15,14355.82L39047.14,14355.82L39051.07,14356.93L39051.07,14356.93L39048.12,14363.56L39047.14,14367.99L39046.15,14366.88L39042.22,14365.77L39038.29,14362.46L39039.27,14360.25Z" /><path d="M39021.57,14333.71L39022.55,14340.34L39022.55,14342.55L39017.64,14343.66L39017.64,14340.34L39016.66,14334.81L39015.67,14331.50L39020.59,14330.39L39020.59,14330.39L39021.57,14333.71Z" /><path d="M39023.54,14350.29L39023.54,14354.72L39019.60,14354.72L39016.66,14354.72L39017.64,14349.19L39015.67,14349.19L39014.69,14343.66L39017.64,14343.66L39017.64,14343.66L39022.55,14342.55L39023.54,14344.77L39023.54,14344.77L39023.54,14350.29Z" /><path d="M39027.47,14372.41L39029.44,14370.20L39030.42,14367.99L39031.40,14369.09L39031.40,14367.99L39037.30,14371.30L39038.29,14369.09L39039.27,14366.88L39041.24,14369.09L39039.27,14372.41L39038.29,14374.62L39036.32,14373.51L39036.32,14373.51L39034.35,14372.41L39032.39,14376.83L39036.32,14379.04L39034.35,14382.36L39024.52,14376.83L39023.54,14375.73L39022.55,14375.73L39020.59,14374.62L39018.62,14373.51L39020.59,14371.30L39021.57,14372.41L39021.57,14373.51L39023.54,14373.51L39024.52,14371.30L39027.47,14372.41Z" /><path d="M39013.71,14381.25L39015.67,14382.36L39019.60,14384.57L39019.60,14384.57L39023.54,14375.73L39024.52,14376.83L39034.35,14382.36L39035.34,14382.36L39031.40,14387.89L39033.37,14388.99L39031.40,14392.31L39029.44,14395.63L39017.64,14388.99L39016.66,14390.10L39013.71,14385.68L39012.72,14386.78L39011.74,14385.68L39010.76,14383.47L39008.79,14381.25L39008.79,14380.15L39009.77,14380.15L39010.76,14380.15L39013.71,14381.25Z" /><path d="M39002.89,14396.73L39005.84,14394.52L39008.79,14393.42L39006.82,14391.21L39008.79,14390.10L39006.82,14386.78L39007.81,14384.57L39009.77,14387.89L39011.74,14385.68L39012.72,14386.78L39017.64,14394.52L39021.57,14398.95L39020.59,14398.95L39002.89,14400.05L38998.96,14400.05L38999.94,14397.84L39000.92,14396.73L39002.89,14396.73Z" /><path d="M39030.42,14412.22L39029.44,14412.22L39026.49,14411.11L39025.50,14411.11L39023.54,14408.90L39021.57,14407.79L39022.55,14406.69L39022.55,14405.58L39022.55,14405.58L39022.55,14405.58L39022.55,14405.58L39022.55,14405.58L39022.55,14405.58L39022.55,14404.47L39022.55,14403.37L39022.55,14403.37L39024.52,14401.16L39026.49,14398.95L39028.45,14398.95L39029.44,14397.84L39029.44,14398.95L39030.42,14398.95L39038.29,14396.73L39038.29,14398.95L39039.27,14398.95L39041.24,14397.84L39041.24,14397.84L39040.25,14397.84L39040.25,14395.63L39040.25,14395.63L39039.27,14394.52L39043.20,14393.42L39045.17,14392.31L39047.14,14398.95L39044.19,14400.05L39045.17,14401.16L39042.22,14402.26L39042.22,14403.37L39036.32,14405.58L39034.35,14407.79L39030.42,14412.22Z" /><path d="M39048.12,14413.32L39050.09,14415.53L39043.20,14422.17L39041.24,14419.96L39041.24,14419.96L39038.29,14416.64L39046.15,14407.79L39050.09,14411.11L39048.12,14413.32Z" /><path d="M39012.72,14377.94L39012.72,14376.83L39014.69,14372.41L39017.64,14373.51L39018.62,14373.51L39020.59,14374.62L39022.55,14375.73L39023.54,14375.73L39023.54,14375.73L39022.55,14379.04L39019.60,14377.94L39017.64,14380.15L39020.59,14382.36L39019.60,14384.57L39019.60,14384.57L39016.66,14383.47L39015.67,14382.36L39013.71,14381.25L39012.72,14381.25L39010.76,14380.15L39008.79,14379.04L39009.77,14376.83L39009.77,14376.83L39012.72,14377.94Z" /><path d="M39028.45,14358.03L39026.49,14354.72L39023.54,14354.72L39023.54,14344.77L39030.42,14344.77L39035.34,14344.77L39034.35,14345.87L39034.35,14348.08L39033.37,14350.29L39032.39,14352.51L39031.40,14353.61L39028.45,14358.03Z" /><path d="M39021.57,14333.71L39020.59,14330.39L39025.50,14330.39L39027.47,14329.28L39027.47,14331.50L39028.45,14333.71L39028.45,14334.81L39030.42,14344.77L39023.54,14344.77L39023.54,14344.77L39022.55,14342.55L39022.55,14340.34L39021.57,14333.71Z" /><path d="M38994.04,14264.05L38991.09,14261.83L38995.02,14256.31L39001.91,14260.73L38997.97,14266.26L38994.04,14264.05Z" /><path d="M39067.79,14146.84L39069.75,14143.52L39072.70,14144.63L39077.62,14146.84L39082.54,14150.15L39081.55,14151.26L39082.54,14152.37L39078.60,14155.68L39078.60,14155.68L39078.60,14155.68L39076.64,14157.89L39073.69,14155.68L39073.69,14155.68L39070.74,14153.47L39068.77,14152.37L39068.77,14152.37L39065.82,14151.26L39065.82,14150.15L39066.80,14149.05L39067.79,14146.84Z" /><path d="M39059.92,14131.36L39060.90,14129.15L39061.89,14129.15L39063.85,14130.25L39068.77,14131.36L39066.80,14137.99L39063.85,14136.89L39063.85,14136.89L39061.89,14136.89L39060.90,14136.89L39060.90,14136.89L39057.95,14135.78L39059.92,14132.46L39059.92,14131.36Z" /><path d="M39090.40,14110.35L39088.44,14115.88L39089.42,14115.88L39087.45,14121.41L39084.50,14120.30L39084.50,14120.30L39080.57,14119.19L39084.50,14109.24L39086.47,14109.24L39087.45,14109.24L39090.40,14110.35Z" /><path d="M39045.17,14192.17L39047.14,14193.28L39042.22,14202.12L39041.24,14204.34L39040.25,14203.23L39040.25,14203.23L39040.25,14203.23L39036.32,14209.86L39029.44,14207.65L39038.29,14189.96L39038.29,14189.96L39040.25,14187.75L39038.29,14186.64L39039.27,14184.43L39040.25,14185.54L39043.20,14186.64L39046.15,14188.86L39047.14,14189.96L39047.14,14189.96L39045.17,14192.17Z" /><path d="M39028.45,14229.77L39018.62,14223.13L39023.54,14215.39L39032.39,14217.60L39035.34,14218.71L39028.45,14229.77Z" /><path d="M39020.59,14236.40L39023.54,14229.77L39017.64,14226.45L39018.62,14223.13L39028.45,14229.77L39028.45,14230.87L39027.47,14231.98L39025.50,14235.30L39023.54,14238.61L39020.59,14236.40Z" /><path d="M39007.81,14234.19L39008.79,14230.87L39010.76,14231.98L39013.71,14233.09L39016.66,14234.19L39018.62,14235.30L39020.59,14236.40L39023.54,14238.61L39018.62,14248.57L39013.71,14245.25L39014.69,14245.25L39011.74,14243.04L39004.86,14240.83L39007.81,14234.19Z" /><path d="M39005.84,14259.62L39003.87,14257.41L39009.77,14250.78L39014.69,14254.09L39008.79,14261.83L39005.84,14259.62Z" /><path d="M39005.84,14259.62L39008.79,14261.83L39005.84,14265.15L39002.89,14269.57L38997.97,14266.26L39001.91,14260.73L39003.87,14257.41L39005.84,14259.62Z" /><path d="M38993.06,14267.36L38995.02,14264.05L38997.97,14266.26L39002.89,14269.57L38999.94,14276.21L38995.02,14275.10L38993.06,14274.00L38994.04,14272.89L38991.09,14270.68L38993.06,14267.36Z" /><path d="M38999.94,14276.21L38998.96,14279.53L38997.97,14281.74L38997.97,14281.74L38996.01,14287.27L38994.04,14290.58L38985.19,14288.37L38984.21,14288.37L38983.22,14286.16L38983.22,14286.16L38990.11,14270.68L38991.09,14270.68L38994.04,14272.89L38993.06,14274.00L38999.94,14276.21Z" /><path d="M39044.19,14161.21L39054.02,14151.26L39053.04,14151.26L39055.00,14150.15L39055.00,14150.15L39056.97,14147.94L39061.89,14152.37L39046.15,14167.85L39043.20,14164.53L39042.22,14166.74L39041.24,14165.64L39038.29,14164.53L39039.27,14164.53L39040.25,14161.21L39041.24,14160.11L39044.19,14161.21Z" /><path d="M39096.30,14145.73L39102.20,14135.78L39105.15,14130.25L39106.14,14130.25L39107.12,14130.25L39107.12,14131.36L39112.04,14136.89L39106.14,14144.63L39104.17,14147.94L39101.22,14146.84L39100.24,14147.94L39095.32,14155.68L39090.40,14152.37L39096.30,14145.73Z" /><path d="M39121.87,14118.09L39121.87,14118.09L39125.80,14116.98L39126.79,14116.98L39125.80,14112.56L39123.84,14112.56L39123.84,14110.35L39124.82,14110.35L39123.84,14109.24L39122.85,14107.03L39127.77,14104.82L39132.69,14103.71L39138.59,14101.50L39139.57,14104.82L39139.57,14105.93L39139.57,14112.56L39142.52,14113.67L39142.52,14114.77L39142.52,14114.77L39141.54,14115.88L39140.55,14115.88L39139.57,14114.77L39137.60,14115.88L39132.69,14118.09L39126.79,14120.30L39127.77,14121.41L39123.84,14122.51L39124.82,14125.83L39128.75,14123.62L39128.75,14124.72L39134.65,14122.51L39139.57,14121.41L39142.52,14120.30L39144.49,14119.19L39146.45,14118.09L39150.38,14121.41L39151.37,14122.51L39152.35,14121.41L39155.30,14124.72L39158.25,14126.93L39153.33,14129.15L39148.42,14131.36L39148.42,14131.36L39144.49,14132.46L39143.50,14132.46L39139.57,14134.67L39139.57,14134.67L39134.65,14136.89L39135.64,14139.10L39127.77,14142.41L39127.77,14142.41L39128.75,14144.63L39126.79,14144.63L39127.77,14145.73L39131.70,14143.52L39136.62,14141.31L39135.64,14140.20L39140.55,14139.10L39140.55,14137.99L39145.47,14135.78L39149.40,14133.57L39154.32,14132.46L39159.23,14130.25L39161.20,14129.15L39163.17,14130.25L39164.15,14131.36L39164.15,14132.46L39171.03,14139.10L39163.17,14141.31L39159.23,14143.52L39154.32,14145.73L39149.40,14147.94L39145.47,14150.15L39140.55,14152.37L39136.62,14154.58L39133.67,14156.79L39133.67,14156.79L39129.74,14160.11L39128.75,14160.11L39128.75,14160.11L39127.77,14160.11L39126.79,14160.11L39126.79,14160.11L39125.80,14160.11L39125.80,14159.00L39124.82,14159.00L39124.82,14159.00L39123.84,14157.89L39123.84,14157.89L39123.84,14157.89L39123.84,14157.89L39122.85,14156.79L39122.85,14156.79L39122.85,14156.79L39122.85,14154.58L39122.85,14154.58L39122.85,14154.58L39122.85,14154.58L39122.85,14146.84L39122.85,14144.63L39122.85,14143.52L39122.85,14141.31L39122.85,14141.31L39122.85,14139.10L39122.85,14137.99L39122.85,14137.99L39121.87,14136.89L39121.87,14135.78L39121.87,14134.67L39121.87,14134.67L39121.87,14133.57L39121.87,14133.57L39120.89,14132.46L39120.89,14132.46L39120.89,14131.36L39120.89,14131.36L39120.89,14130.25L39119.90,14130.25L39119.90,14129.15L39119.90,14129.15L39119.90,14128.04L39119.90,14128.04L39120.89,14126.93L39119.90,14124.72L39117.94,14124.72L39116.95,14124.72L39116.95,14124.72L39116.95,14124.72L39116.95,14124.72L39116.95,14124.72L39116.95,14124.72L39115.97,14123.62L39114.99,14122.51L39114.00,14121.41L39114.00,14121.41L39113.02,14120.30L39113.02,14118.09L39113.02,14118.09L39113.02,14116.98L39113.02,14115.88L39114.00,14114.77L39114.00,14113.67L39114.00,14113.67L39114.00,14112.56L39114.99,14112.56L39114.99,14111.45L39115.97,14110.35L39116.95,14110.35L39116.95,14110.35L39117.94,14109.24L39117.94,14109.24L39118.92,14110.35L39121.87,14118.09Z" /><path d="M39139.57,14104.82L39138.59,14101.50L39147.43,14098.19L39148.42,14102.61L39148.42,14103.71L39144.49,14105.93L39139.57,14104.82Z" /><path d="M39146.45,14118.09L39144.49,14115.88L39145.47,14114.77L39146.45,14112.56L39146.45,14110.35L39149.40,14109.24L39150.38,14112.56L39151.37,14113.67L39154.32,14112.56L39155.30,14116.98L39154.32,14118.09L39150.38,14121.41L39146.45,14118.09Z" /><path d="M39157.27,14098.19L39158.25,14101.50L39159.23,14107.03L39160.22,14109.24L39155.30,14110.35L39152.35,14111.45L39152.35,14110.35L39150.38,14101.50L39150.38,14100.40L39149.40,14098.19L39149.40,14098.19L39149.40,14098.19L39149.40,14098.19L39149.40,14097.08L39149.40,14097.08L39149.40,14097.08L39154.32,14094.87L39156.28,14094.87L39156.28,14097.08L39157.27,14098.19Z" /><path d="M39159.23,14107.03L39158.25,14101.50L39157.27,14098.19L39156.28,14097.08L39156.28,14094.87L39160.22,14093.76L39162.18,14092.66L39163.17,14094.87L39169.07,14102.61L39160.22,14109.24L39159.23,14107.03Z" /><path d="M39164.15,14091.55L39165.13,14091.55L39168.08,14090.44L39176.93,14103.71L39174.97,14104.82L39174.97,14105.93L39173.00,14107.03L39171.03,14104.82L39169.07,14102.61L39165.13,14097.08L39163.17,14094.87L39162.18,14092.66L39164.15,14091.55Z" /><path d="M39155.30,14124.72L39152.35,14121.41L39154.32,14119.19L39154.32,14118.09L39155.30,14116.98L39154.32,14112.56L39158.25,14111.45L39163.17,14115.88L39155.30,14124.72Z" /><path d="M39169.07,14126.93L39164.15,14131.36L39163.17,14130.25L39161.20,14129.15L39159.23,14128.04L39167.10,14120.30L39172.02,14124.72L39169.07,14126.93Z" /><path d="M39145.47,14114.77L39144.49,14110.35L39144.49,14105.93L39148.42,14103.71L39150.38,14109.24L39149.40,14109.24L39146.45,14110.35L39146.45,14112.56L39145.47,14114.77Z" /><path d="M39156.28,14123.62L39156.28,14123.62L39163.17,14115.88L39167.10,14120.30L39160.22,14126.93L39160.22,14126.93L39155.30,14123.62L39156.28,14123.62Z" /><path d="M39156.28,14065.01L39174.97,14058.38L39173.00,14052.85L39196.60,14045.11L39200.53,14057.27L39202.50,14061.70L39160.22,14076.07L39143.50,14081.60L39141.54,14076.07L39153.33,14071.65L39151.37,14066.12L39156.28,14065.01Z" /><path d="M39211.35,14061.70L39207.42,14048.43L39225.12,14041.79L39226.10,14045.11L39228.07,14045.11L39229.05,14047.32L39231.02,14053.96L39231.02,14055.06L39211.35,14061.70Z" /><path d="M39308.70,14044.00L39313.61,14042.90L39315.58,14041.79L39319.51,14047.32L39315.58,14048.43L39316.56,14050.64L39310.66,14052.85L39312.63,14058.38L39298.86,14061.70L39292.96,14048.43L39302.80,14046.22L39308.70,14044.00Z" /><path d="M39330.33,14041.79L39332.30,14040.69L39338.20,14038.48L39341.15,14037.37L39343.11,14036.26L39347.05,14035.16L39348.03,14034.05L39349.01,14034.05L39351.96,14032.95L39353.93,14031.84L39353.93,14031.84L39357.86,14030.73L39359.83,14029.63L39362.78,14028.52L39365.73,14027.42L39368.68,14026.31L39370.65,14025.21L39370.65,14025.21L39374.58,14024.10L39376.55,14022.99L39379.50,14021.89L39382.45,14020.78L39385.40,14019.68L39387.36,14018.57L39389.33,14021.89L39390.31,14024.10L39390.31,14026.31L39385.40,14028.52L39379.50,14030.73L39373.60,14032.95L39373.60,14032.95L39368.68,14035.16L39362.78,14037.37L39356.88,14039.58L39356.88,14039.58L39351.96,14041.79L39351.96,14041.79L39346.06,14044.00L39341.15,14046.22L39335.25,14048.43L39331.31,14050.64L39329.35,14047.32L39327.38,14044.00L39326.40,14042.90L39330.33,14041.79Z" /><path d="M39336.23,14058.38L39338.20,14061.70L39349.01,14056.17L39348.03,14052.85L39348.03,14052.85L39358.85,14047.32L39359.83,14048.43L39360.81,14050.64L39390.31,14037.37L39389.33,14035.16L39389.33,14034.05L39393.26,14031.84L39394.25,14032.95L39394.25,14034.05L39395.23,14035.16L39396.21,14037.37L39398.18,14042.90L39398.18,14042.90L39396.21,14044.00L39392.28,14045.11L39393.26,14047.32L39391.30,14047.32L39387.36,14049.53L39385.40,14050.64L39381.46,14051.74L39373.60,14055.06L39370.65,14057.27L39369.66,14056.17L39367.70,14056.17L39363.76,14058.38L39364.75,14059.48L39362.78,14060.59L39363.76,14061.70L39359.83,14063.91L39358.85,14062.80L39356.88,14062.80L39352.95,14065.01L39352.95,14063.91L39350.98,14063.91L39347.05,14066.12L39345.08,14067.22L39341.15,14068.33L39342.13,14070.54L39339.18,14071.65L39334.26,14073.86L39334.26,14071.65L39333.28,14066.12L39333.28,14062.80L39333.28,14062.80L39332.30,14060.59L39332.30,14059.48L39336.23,14058.38L39336.23,14058.38Z" /><path d="M39419.81,14038.48L39419.81,14039.58L39413.91,14041.79L39413.91,14040.69L39410.96,14041.79L39411.94,14042.90L39408.01,14044.00L39408.01,14042.90L39407.03,14044.00L39405.06,14039.58L39402.11,14032.95L39406.04,14031.84L39404.08,14028.52L39410.96,14026.31L39410.96,14025.21L39412.93,14028.52L39416.86,14027.42L39418.83,14032.95L39420.79,14035.16L39421.78,14037.37L39419.81,14038.48Z" /><path d="M39411.94,14030.73L39409.98,14031.84L39410.96,14034.05L39412.93,14032.95L39411.94,14030.73Z" /><path d="M39415.88,14072.75L39432.59,14065.01L39435.54,14070.54L39426.69,14074.96L39422.76,14077.18L39420.79,14078.28L39416.86,14079.39L39415.88,14078.28L39413.91,14073.86L39415.88,14072.75Z" /><path d="M39445.38,14089.34L39445.38,14089.34L39435.54,14093.76L39435.54,14093.76L39433.58,14090.44L39431.61,14084.92L39429.64,14080.49L39426.69,14074.96L39435.54,14070.54L39436.53,14072.75L39438.49,14076.07L39440.46,14080.49L39443.41,14086.02L39445.38,14089.34Z" /><path d="M39439.48,14084.92L39436.53,14086.02L39437.51,14088.23L39439.48,14087.13L39439.48,14084.92Z" /><path d="M39423.74,14088.23L39430.63,14084.92L39431.61,14084.92L39433.58,14090.44L39435.54,14093.76L39428.66,14095.97L39428.66,14095.97L39425.71,14097.08L39423.74,14093.76L39422.76,14091.55L39421.78,14089.34L39423.74,14088.23Z" /><path d="M39341.15,14088.23L39346.06,14086.02L39350.98,14083.81L39355.90,14081.60L39360.81,14079.39L39365.73,14077.18L39370.65,14074.96L39371.63,14077.18L39373.60,14081.60L39374.58,14083.81L39371.63,14084.92L39369.66,14086.02L39366.71,14087.13L39364.75,14088.23L39361.80,14089.34L39359.83,14090.44L39356.88,14091.55L39353.93,14092.66L39350.98,14093.76L39349.01,14094.87L39346.06,14095.97L39344.10,14097.08L39341.15,14098.19L39339.18,14099.29L39336.23,14092.66L39335.25,14090.44L39341.15,14088.23Z" /><path d="M39376.55,14072.75L39381.46,14070.54L39386.38,14068.33L39391.30,14066.12L39396.21,14063.91L39401.13,14061.70L39406.04,14059.48L39408.99,14065.01L39409.98,14067.22L39407.03,14068.33L39405.06,14069.44L39402.11,14070.54L39400.14,14071.65L39397.20,14072.75L39395.23,14073.86L39391.30,14074.96L39390.31,14076.07L39386.38,14078.28L39384.41,14078.28L39381.46,14080.49L39380.48,14080.49L39376.55,14082.70L39374.58,14082.70L39374.58,14083.81L39373.60,14081.60L39371.63,14077.18L39370.65,14076.07L39370.65,14074.96L39370.65,14074.96L39376.55,14072.75Z" /><path d="M39411.94,14016.36L39412.93,14019.68L39408.99,14021.89L39407.03,14016.36L39404.08,14017.47L39403.09,14016.36L39402.11,14016.36L39400.14,14013.04L39398.18,14009.73L39407.03,14006.41L39411.94,14016.36Z" /><path d="M39404.08,14017.47L39407.03,14016.36L39408.99,14021.89L39400.14,14025.21L39399.16,14026.31L39392.28,14028.52L39391.30,14028.52L39390.31,14026.31L39390.31,14024.10L39389.33,14021.89L39391.30,14020.78L39392.28,14020.78L39394.25,14019.68L39394.25,14020.78L39397.20,14019.68L39397.20,14018.57L39399.16,14017.47L39402.11,14016.36L39403.09,14016.36L39404.08,14017.47Z" /><path d="M39399.16,14017.47L39397.20,14018.57L39396.21,14016.36L39393.26,14017.47L39394.25,14019.68L39392.28,14020.78L39391.30,14020.78L39389.33,14021.89L39387.36,14018.57L39386.38,14015.25L39387.36,14014.15L39398.18,14009.73L39400.14,14013.04L39402.11,14016.36L39399.16,14017.47Z" /><path d="M39399.16,14034.05L39400.14,14037.37L39403.09,14036.26L39405.06,14039.58L39406.04,14040.69L39407.03,14044.00L39405.06,14044.00L39406.04,14045.11L39403.09,14046.22L39402.11,14045.11L39402.11,14046.22L39400.14,14042.90L39398.18,14042.90L39398.18,14042.90L39398.18,14042.90L39395.23,14035.16L39394.25,14034.05L39401.13,14030.73L39402.11,14032.95L39399.16,14034.05Z" /><path d="M39408.01,13976.55L39409.98,13982.08L39413.91,13992.03L39409.98,13993.14L39399.16,13997.56L39395.23,13987.61L39393.26,13983.19L39389.33,13973.24L39404.08,13967.71L39404.08,13968.81L39408.01,13976.55Z" /><path d="M39497.49,14126.93L39500.44,14125.83L39499.46,14123.62L39501.43,14121.41L39502.41,14121.41L39504.38,14125.83L39504.38,14125.83L39506.34,14130.25L39492.58,14136.89L39490.61,14134.67L39497.49,14126.93L39497.49,14126.93Z" /><path d="M39511.26,14116.98L39517.16,14114.77L39519.13,14119.19L39519.13,14120.30L39521.09,14123.62L39520.11,14124.72L39521.09,14125.83L39507.33,14131.36L39506.34,14130.25L39504.38,14125.83L39504.38,14125.83L39502.41,14121.41L39511.26,14116.98Z" /><path d="M39519.13,14113.67L39523.06,14112.56L39523.06,14112.56L39526.01,14110.35L39527.97,14113.67L39527.97,14113.67L39528.96,14115.88L39528.96,14115.88L39530.92,14120.30L39521.09,14123.62L39519.13,14120.30L39519.13,14120.30L39519.13,14119.19L39518.14,14118.09L39517.16,14114.77L39519.13,14113.67L39519.13,14113.67Z" /><path d="M39522.08,14115.88L39522.08,14116.98L39525.02,14115.88L39524.04,14114.77L39524.04,14114.77L39522.08,14115.88L39522.08,14115.88Z" /><path d="M39536.82,14109.24L39537.81,14112.56L39539.77,14115.88L39535.84,14116.98L39530.92,14120.30L39528.96,14115.88L39527.97,14113.67L39526.01,14110.35L39530.92,14108.14L39534.86,14107.03L39536.82,14109.24Z" /><path d="M39533.87,14112.56L39532.89,14110.35L39530.92,14111.45L39531.91,14113.67L39533.87,14112.56Z" /><path d="M39545.67,14107.03L39546.66,14108.14L39546.66,14108.14L39548.62,14111.45L39545.67,14113.67L39539.77,14115.88L39537.81,14112.56L39536.82,14109.24L39534.86,14107.03L39544.69,14102.61L39545.67,14107.03Z" /><path d="M39556.49,14104.82L39557.47,14108.14L39552.56,14110.35L39548.62,14111.45L39546.66,14108.14L39546.66,14108.14L39545.67,14107.03L39544.69,14102.61L39552.56,14099.29L39553.54,14098.19L39555.51,14102.61L39556.49,14104.82Z" /><path d="M39549.61,14107.03L39551.57,14105.93L39551.57,14104.82L39548.62,14105.93L39549.61,14107.03Z" /><path d="M39412.93,14114.77L39413.91,14118.09L39414.89,14119.19L39415.88,14122.51L39415.88,14123.62L39408.99,14125.83L39408.01,14124.72L39406.04,14125.83L39405.06,14121.41L39402.11,14114.77L39405.06,14113.67L39411.94,14111.45L39412.93,14114.77Z" /><path d="M39423.74,14119.19L39424.73,14120.30L39415.88,14123.62L39415.88,14122.51L39414.89,14119.19L39413.91,14118.09L39412.93,14114.77L39411.94,14111.45L39419.81,14108.14L39422.76,14115.88L39423.74,14119.19Z" /><path d="M39430.63,14108.14L39433.58,14116.98L39424.73,14120.30L39423.74,14119.19L39422.76,14115.88L39419.81,14108.14L39429.64,14104.82L39430.63,14108.14Z" /><path d="M39458.16,14099.29L39461.11,14098.19L39461.11,14098.19L39462.09,14101.50L39464.06,14105.93L39463.08,14105.93L39460.13,14107.03L39460.13,14107.03L39459.14,14107.03L39456.19,14108.14L39455.21,14105.93L39455.21,14104.82L39453.24,14101.50L39453.24,14101.50L39455.21,14100.40L39454.23,14098.19L39452.26,14099.29L39452.26,14098.19L39450.29,14094.87L39458.16,14091.55L39459.14,14094.87L39457.18,14095.97L39458.16,14099.29Z" /><path d="M39470.94,14084.92L39475.86,14082.70L39478.81,14090.44L39479.79,14091.55L39480.78,14094.87L39481.76,14097.08L39472.91,14101.50L39471.93,14099.29L39468.98,14091.55L39467.01,14087.13L39470.94,14084.92Z" /><path d="M39393.26,14120.30L39395.23,14124.72L39397.20,14129.15L39387.36,14132.46L39386.38,14128.04L39385.40,14125.83L39384.41,14124.72L39383.43,14120.30L39392.28,14118.09L39393.26,14120.30Z" /><path d="M39489.63,14084.92L39492.58,14091.55L39487.66,14093.76L39481.76,14097.08L39479.79,14091.55L39478.81,14090.44L39475.86,14082.70L39486.68,14079.39L39489.63,14084.92Z" /><path d="M39504.38,14079.39L39504.38,14080.49L39507.33,14078.28L39509.29,14082.70L39492.58,14091.55L39489.63,14084.92L39486.68,14079.39L39504.38,14072.75L39506.34,14076.07L39503.39,14077.18L39504.38,14079.39Z" /><path d="M39495.53,14082.70L39498.48,14081.60L39497.49,14078.28L39494.54,14079.39L39495.53,14082.70Z" /><path d="M39524.04,14069.44L39525.02,14072.75L39515.19,14079.39L39513.23,14080.49L39509.29,14082.70L39507.33,14078.28L39506.34,14077.18L39506.34,14076.07L39504.38,14072.75L39504.38,14071.65L39522.08,14063.91L39524.04,14069.44Z" /><path d="M39512.24,14073.86L39515.19,14072.75L39514.21,14069.44L39511.26,14071.65L39512.24,14073.86Z" /><path d="M39526.99,14093.76L39530.92,14091.55L39531.91,14093.76L39534.86,14098.19L39536.82,14102.61L39530.92,14104.82L39527.97,14105.93L39526.01,14102.61L39529.94,14100.40L39528.96,14099.29L39525.02,14100.40L39525.02,14098.19L39523.06,14095.97L39526.99,14093.76Z" /><path d="M39537.81,14088.23L39538.79,14087.13L39539.77,14088.23L39540.76,14091.55L39544.69,14098.19L39538.79,14101.50L39537.81,14101.50L39536.82,14102.61L39534.86,14098.19L39531.91,14093.76L39530.92,14091.55L39533.87,14090.44L39536.82,14088.23L39537.81,14088.23Z" /><path d="M39546.66,14084.92L39551.57,14094.87L39547.64,14097.08L39544.69,14098.19L39540.76,14091.55L39539.77,14088.23L39546.66,14084.92Z" /><path d="M39558.46,14073.86L39559.44,14076.07L39560.42,14079.39L39560.42,14081.60L39561.41,14083.81L39563.37,14089.34L39561.41,14090.44L39555.51,14093.76L39553.54,14089.34L39552.56,14084.92L39551.57,14082.70L39549.61,14077.18L39549.61,14076.07L39552.56,14074.96L39554.52,14073.86L39558.46,14072.75L39558.46,14073.86Z" /><path d="M39569.27,14078.28L39569.27,14079.39L39571.24,14083.81L39572.22,14086.02L39568.29,14087.13L39563.37,14089.34L39561.41,14083.81L39560.42,14081.60L39560.42,14079.39L39559.44,14076.07L39558.46,14073.86L39558.46,14072.75L39566.32,14069.44L39568.29,14073.86L39569.27,14076.07L39569.27,14078.28Z" /><path d="M39568.29,14068.33L39574.19,14066.12L39577.14,14073.86L39578.12,14076.07L39580.09,14082.70L39577.14,14083.81L39572.22,14086.02L39571.24,14083.81L39569.27,14079.39L39569.27,14078.28L39569.27,14076.07L39568.29,14073.86L39566.32,14069.44L39568.29,14068.33Z" /><path d="M39585.99,14068.33L39586.97,14072.75L39587.96,14073.86L39587.96,14073.86L39588.94,14078.28L39580.09,14082.70L39578.12,14077.18L39578.12,14076.07L39577.14,14073.86L39576.16,14071.65L39574.19,14066.12L39577.14,14065.01L39584.02,14062.80L39585.01,14065.01L39585.99,14068.33Z" /><path d="M39592.87,14062.80L39593.86,14065.01L39590.91,14066.12L39591.89,14067.22L39591.89,14068.33L39594.84,14067.22L39596.81,14070.54L39597.79,14074.96L39597.79,14076.07L39589.92,14078.28L39588.94,14078.28L39587.96,14073.86L39586.97,14072.75L39586.97,14070.54L39585.99,14069.44L39585.01,14065.01L39585.01,14065.01L39589.92,14062.80L39588.94,14060.59L39591.89,14059.48L39592.87,14062.80Z" /><path d="M39518.14,14100.40L39523.06,14095.97L39525.02,14098.19L39525.02,14100.40L39526.01,14101.50L39526.01,14101.50L39526.01,14102.61L39527.97,14105.93L39509.29,14114.77L39506.34,14112.56L39510.28,14107.03L39516.18,14101.50L39518.14,14100.40Z" /><path d="M39610.57,14055.06L39611.56,14058.38L39614.51,14066.12L39610.57,14067.22L39610.57,14069.44L39606.64,14070.54L39604.67,14066.12L39603.69,14062.80L39603.69,14061.70L39602.71,14058.38L39601.72,14055.06L39608.61,14051.74L39610.57,14055.06Z" /><path d="M39604.67,14063.91L39604.67,14066.12L39606.64,14070.54L39597.79,14074.96L39596.81,14070.54L39594.84,14067.22L39594.84,14067.22L39594.84,14066.12L39593.86,14065.01L39591.89,14059.48L39601.72,14055.06L39602.71,14058.38L39603.69,14061.70L39603.69,14062.80L39604.67,14063.91Z" /><path d="M39597.79,14066.12L39598.77,14067.22L39598.77,14067.22L39601.72,14066.12L39601.72,14066.12L39600.74,14065.01L39600.74,14062.80L39598.77,14063.91L39597.79,14063.91L39597.79,14066.12Z" /><path d="M39534.86,14134.67L39537.81,14141.31L39537.81,14143.52L39535.84,14144.63L39528.96,14146.84L39527.97,14145.73L39526.01,14140.20L39525.02,14135.78L39524.04,14131.36L39532.89,14126.93L39534.86,14132.46L39534.86,14134.67L39534.86,14134.67Z" /><path d="M39530.92,14136.89L39529.94,14134.67L39528.96,14134.67L39529.94,14136.89L39530.92,14136.89Z" /><path d="M39537.81,14125.83L39539.77,14124.72L39541.74,14123.62L39543.71,14131.36L39537.81,14133.57L39536.82,14133.57L39534.86,14134.67L39534.86,14132.46L39532.89,14126.93L39537.81,14125.83Z" /><path d="M39555.51,14142.41L39552.56,14143.52L39549.61,14144.63L39547.64,14139.10L39547.64,14139.10L39546.66,14135.78L39552.56,14134.67L39555.51,14133.57L39555.51,14134.67L39556.49,14136.89L39556.49,14136.89L39557.47,14142.41L39555.51,14142.41Z" /><path d="M39558.46,14146.84L39559.44,14150.15L39559.44,14152.37L39552.56,14154.58L39551.57,14154.58L39551.57,14153.47L39550.59,14150.15L39549.61,14145.73L39552.56,14144.63L39553.54,14144.63L39557.47,14143.52L39558.46,14146.84Z" /><path d="M39579.11,14126.93L39581.07,14133.57L39576.16,14134.67L39573.21,14134.67L39571.24,14135.78L39570.26,14131.36L39569.27,14129.15L39569.27,14129.15L39568.29,14125.83L39567.31,14122.51L39573.21,14120.30L39577.14,14119.19L39577.14,14121.41L39578.12,14122.51L39579.11,14125.83L39579.11,14126.93Z" /><path d="M39569.27,14111.45L39571.24,14110.35L39574.19,14110.35L39575.17,14113.67L39576.16,14116.98L39577.14,14119.19L39573.21,14120.30L39567.31,14122.51L39566.32,14118.09L39565.34,14116.98L39565.34,14115.88L39564.36,14112.56L39564.36,14111.45L39569.27,14110.35L39569.27,14111.45Z" /><path d="M39580.09,14121.41L39583.04,14120.30L39586.97,14120.30L39586.97,14121.41L39589.92,14120.30L39590.91,14124.72L39594.84,14123.62L39596.81,14129.15L39591.89,14130.25L39586.97,14131.36L39584.02,14132.46L39581.07,14133.57L39579.11,14126.93L39579.11,14125.83L39578.12,14122.51L39577.14,14121.41L39580.09,14121.41Z" /><path d="M39604.67,14107.03L39605.66,14110.35L39601.72,14111.45L39599.76,14112.56L39600.74,14114.77L39595.82,14115.88L39594.84,14110.35L39592.87,14105.93L39602.71,14103.71L39604.67,14107.03Z" /><path d="M39520.11,14133.57L39524.04,14131.36L39525.02,14135.78L39526.01,14140.20L39527.97,14145.73L39526.01,14146.84L39524.04,14147.94L39494.54,14161.21L39494.54,14160.11L39493.56,14160.11L39491.59,14155.68L39487.66,14147.94L39490.61,14146.84L39520.11,14133.57Z" /><path d="M39585.99,14118.09L39583.04,14108.14L39592.87,14105.93L39594.84,14110.35L39595.82,14115.88L39593.86,14115.88L39585.99,14118.09Z" /><path d="M39559.44,14135.78L39566.32,14133.57L39567.31,14135.78L39568.29,14135.78L39568.29,14140.20L39568.29,14140.20L39557.47,14143.52L39557.47,14142.41L39556.49,14136.89L39559.44,14135.78Z" /><path d="M39565.34,14129.15L39565.34,14130.25L39566.32,14133.57L39564.36,14134.67L39559.44,14135.78L39557.47,14136.89L39556.49,14136.89L39556.49,14136.89L39555.51,14134.67L39555.51,14133.57L39555.51,14131.36L39554.52,14130.25L39554.52,14128.04L39560.42,14125.83L39563.37,14124.72L39565.34,14129.15Z" /><path d="M39516.18,14046.22L39517.16,14046.22L39523.06,14042.90L39523.06,14044.00L39523.06,14044.00L39523.06,14045.11L39524.04,14046.22L39524.04,14047.32L39524.04,14048.43L39524.04,14048.43L39524.04,14049.53L39526.01,14056.17L39518.14,14058.38L39517.16,14055.06L39517.16,14055.06L39516.18,14052.85L39516.18,14052.85L39515.19,14050.64L39515.19,14049.53L39515.19,14049.53L39514.21,14048.43L39514.21,14047.32L39514.21,14047.32L39516.18,14046.22Z" /><path d="M39410.96,14007.51L39410.96,14005.30L39410.96,14004.20L39413.91,14003.09L39417.84,14000.88L39418.83,14000.88L39420.79,14006.41L39421.78,14008.62L39422.76,14010.83L39423.74,14013.04L39425.71,14016.36L39426.69,14019.68L39424.73,14020.78L39417.84,14024.10L39414.89,14016.36L39413.91,14014.15L39410.96,14007.51Z" /><path d="M39434.56,13995.35L39434.56,13994.25L39436.53,13993.14L39437.51,13994.25L39439.48,13998.67L39440.46,13998.67L39443.41,14005.30L39440.46,14007.51L39441.44,14009.73L39444.39,14008.62L39445.38,14010.83L39436.53,14016.36L39431.61,14005.30L39432.59,14005.30L39433.58,14004.20L39430.63,13997.56L39434.56,13995.35Z" /><path d="M39439.48,13998.67L39437.51,13994.25L39440.46,13993.14L39442.43,13997.56L39441.44,13997.56L39439.48,13998.67Z" /><path d="M39458.16,13990.93L39461.11,13996.46L39461.11,13997.56L39455.21,14000.88L39455.21,13999.77L39453.24,13995.35L39452.26,13993.14L39452.26,13993.14L39451.28,13990.93L39450.29,13988.72L39456.19,13986.51L39458.16,13990.93Z" /><path d="M39458.16,13990.93L39456.19,13986.51L39459.14,13985.40L39465.04,13983.19L39469.96,13995.35L39470.94,13995.35L39470.94,13996.46L39474.88,14006.41L39475.86,14007.51L39478.81,14016.36L39466.03,14021.89L39462.09,14015.25L39458.16,14006.41L39466.03,14003.09L39465.04,13998.67L39464.06,13998.67L39465.04,13998.67L39464.06,13997.56L39463.08,13997.56L39463.08,13997.56L39461.11,13997.56L39461.11,13996.46L39458.16,13990.93Z" /><path d="M39479.79,14004.20L39477.83,14005.30L39474.88,14006.41L39470.94,13996.46L39473.89,13995.35L39477.83,13993.14L39479.79,13992.03L39480.78,13995.35L39483.73,14003.09L39479.79,14004.20Z" /><path d="M39485.69,14005.30L39488.64,14013.04L39481.76,14015.25L39478.81,14016.36L39475.86,14008.62L39475.86,14007.51L39474.88,14006.41L39477.83,14005.30L39479.79,14004.20L39483.73,14003.09L39484.71,14001.99L39484.71,14001.99L39485.69,14005.30Z" /><path d="M39493.56,13998.67L39494.54,14000.88L39494.54,14003.09L39491.59,14004.20L39492.58,14006.41L39495.53,14005.30L39495.53,14005.30L39496.51,14008.62L39488.64,14013.04L39485.69,14005.30L39485.69,14004.20L39484.71,14001.99L39485.69,14001.99L39488.64,14000.88L39484.71,13988.72L39485.69,13987.61L39489.63,13986.51L39490.61,13989.82L39486.68,13990.93L39487.66,13993.14L39490.61,13990.93L39491.59,13992.03L39491.59,13994.25L39489.63,13994.25L39490.61,13996.46L39492.58,13995.35L39493.56,13998.67Z" /><path d="M39474.88,13977.66L39474.88,13977.66L39481.76,13974.34L39481.76,13975.45L39484.71,13974.34L39486.68,13978.77L39486.68,13979.87L39487.66,13983.19L39488.64,13983.19L39489.63,13986.51L39485.69,13987.61L39484.71,13988.72L39482.74,13988.72L39481.76,13989.82L39479.79,13989.82L39479.79,13990.93L39477.83,13987.61L39476.84,13986.51L39476.84,13985.40L39475.86,13983.19L39475.86,13982.08L39474.88,13980.98L39473.89,13978.77L39474.88,13977.66Z" /><path d="M39486.68,13973.24L39488.64,13972.13L39489.63,13972.13L39495.53,13969.92L39497.49,13973.24L39497.49,13975.45L39498.48,13977.66L39496.51,13978.77L39496.51,13979.87L39494.54,13980.98L39494.54,13980.98L39487.66,13983.19L39486.68,13979.87L39486.68,13978.77L39484.71,13974.34L39486.68,13973.24Z" /><path d="M39491.59,13982.08L39491.59,13982.08L39494.54,13980.98L39494.54,13980.98L39497.49,13988.72L39494.54,13988.72L39494.54,13989.82L39490.61,13990.93L39490.61,13989.82L39489.63,13986.51L39488.64,13983.19L39487.66,13983.19L39491.59,13982.08Z" /><path d="M39500.44,13996.46L39500.44,13997.56L39501.43,13999.77L39501.43,13999.77L39503.39,14006.41L39503.39,14006.41L39503.39,14007.51L39498.48,14009.73L39497.49,14008.62L39496.51,14008.62L39495.53,14005.30L39495.53,14005.30L39494.54,14003.09L39494.54,14000.88L39493.56,13998.67L39492.58,13995.35L39492.58,13995.35L39491.59,13994.25L39491.59,13992.03L39490.61,13990.93L39490.61,13990.93L39497.49,13988.72L39498.48,13989.82L39500.44,13996.46Z" /><path d="M39503.39,13988.72L39504.38,13987.61L39506.34,13987.61L39507.33,13989.82L39508.31,13996.46L39509.29,14000.88L39510.28,14004.20L39508.31,14004.20L39508.31,14005.30L39505.36,14006.41L39504.38,14006.41L39503.39,14006.41L39501.43,13999.77L39504.38,13998.67L39504.38,13996.46L39500.44,13997.56L39500.44,13996.46L39498.48,13989.82L39500.44,13988.72L39503.39,13988.72Z" /><path d="M39511.26,13968.81L39512.24,13975.45L39509.29,13976.55L39508.31,13974.34L39506.34,13974.34L39507.33,13976.55L39503.39,13978.77L39504.38,13979.87L39505.36,13982.08L39505.36,13983.19L39503.39,13983.19L39504.38,13987.61L39503.39,13988.72L39500.44,13988.72L39497.49,13979.87L39499.46,13978.77L39501.43,13977.66L39499.46,13973.24L39497.49,13969.92L39497.49,13969.92L39505.36,13965.50L39509.29,13964.39L39511.26,13968.81Z" /><path d="M39512.24,13975.45L39511.26,13968.81L39509.29,13964.39L39525.02,13959.97L39526.01,13962.18L39526.99,13965.50L39526.99,13968.81L39521.09,13971.02L39520.11,13967.71L39517.16,13968.81L39518.14,13972.13L39515.19,13972.13L39516.18,13974.34L39516.18,13976.55L39514.21,13976.55L39511.26,13976.55L39512.24,13977.66L39511.26,13978.77L39512.24,13979.87L39513.23,13985.40L39512.24,13985.40L39510.28,13986.51L39506.34,13987.61L39505.36,13983.19L39505.36,13982.08L39504.38,13979.87L39503.39,13978.77L39507.33,13976.55L39509.29,13976.55L39512.24,13975.45Z" /><path d="M39518.14,13972.13L39521.09,13971.02L39526.99,13968.81L39527.97,13971.02L39527.97,13973.24L39528.96,13975.45L39528.96,13977.66L39529.94,13979.87L39518.14,13984.29L39516.18,13984.29L39514.21,13976.55L39516.18,13976.55L39516.18,13974.34L39515.19,13972.13L39518.14,13972.13Z" /><path d="M39513.23,13988.72L39515.19,13987.61L39514.21,13985.40L39514.21,13985.40L39516.18,13984.29L39518.14,13984.29L39518.14,13986.51L39519.13,13990.93L39517.16,13992.03L39518.14,13993.14L39519.13,13996.46L39520.11,13995.35L39521.09,13999.77L39515.19,14001.99L39514.21,14001.99L39512.24,14003.09L39510.28,14004.20L39509.29,14000.88L39509.29,13999.77L39508.31,13996.46L39507.33,13990.93L39507.33,13989.82L39506.34,13987.61L39506.34,13987.61L39510.28,13986.51L39512.24,13985.40L39512.24,13985.40L39513.23,13988.72Z" /><path d="M39537.81,13983.19L39542.72,13982.08L39543.71,13986.51L39545.67,13992.03L39542.72,13993.14L39539.77,13993.14L39536.82,13994.25L39534.86,13987.61L39533.87,13984.29L39537.81,13983.19Z" /><path d="M39539.77,13977.66L39540.76,13980.98L39533.87,13982.08L39532.89,13978.77L39531.91,13977.66L39531.91,13974.34L39530.92,13973.24L39530.92,13971.02L39534.86,13969.92L39536.82,13968.81L39537.81,13968.81L39537.81,13969.92L39539.77,13977.66Z" /><path d="M39544.69,13957.76L39545.67,13961.07L39545.67,13962.18L39546.66,13964.39L39543.71,13965.50L39539.77,13966.60L39539.77,13967.71L39537.81,13968.81L39536.82,13968.81L39536.82,13967.71L39534.86,13967.71L39534.86,13969.92L39530.92,13971.02L39528.96,13965.50L39527.97,13962.18L39527.97,13958.86L39531.91,13957.76L39543.71,13954.44L39544.69,13957.76Z" /><path d="M39547.64,13968.81L39548.62,13971.02L39548.62,13973.24L39549.61,13978.77L39540.76,13980.98L39539.77,13977.66L39537.81,13969.92L39537.81,13968.81L39540.76,13968.81L39540.76,13967.71L39546.66,13965.50L39547.64,13966.60L39547.64,13968.81Z" /><path d="M39552.56,13979.87L39551.57,13979.87L39553.54,13978.77L39556.49,13977.66L39558.46,13985.40L39554.52,13989.82L39551.57,13990.93L39548.62,13990.93L39547.64,13992.03L39545.67,13992.03L39543.71,13986.51L39542.72,13982.08L39550.59,13980.98L39551.57,13979.87L39552.56,13979.87Z" /><path d="M39554.52,13967.71L39554.52,13969.92L39555.51,13971.02L39555.51,13973.24L39556.49,13975.45L39556.49,13977.66L39553.54,13978.77L39551.57,13979.87L39551.57,13978.77L39551.57,13976.55L39550.59,13973.24L39549.61,13971.02L39549.61,13968.81L39549.61,13967.71L39548.62,13965.50L39548.62,13963.28L39547.64,13962.18L39547.64,13959.97L39546.66,13954.44L39551.57,13953.33L39551.57,13955.54L39552.56,13959.97L39552.56,13959.97L39553.54,13962.18L39553.54,13963.28L39554.52,13966.60L39554.52,13967.71Z" /><path d="M39559.44,13952.23L39559.44,13952.23L39560.42,13955.54L39560.42,13957.76L39561.41,13961.07L39558.46,13961.07L39559.44,13964.39L39562.39,13964.39L39562.39,13964.39L39562.39,13964.39L39563.37,13968.81L39557.47,13969.92L39555.51,13971.02L39554.52,13966.60L39553.54,13963.28L39553.54,13962.18L39554.52,13962.18L39554.52,13958.86L39552.56,13959.97L39552.56,13959.97L39551.57,13955.54L39551.57,13953.33L39552.56,13953.33L39558.46,13951.12L39559.44,13952.23Z" /><path d="M39569.27,13961.07L39569.27,13961.07L39581.07,13958.86L39582.06,13961.07L39583.04,13964.39L39577.14,13965.50L39577.14,13965.50L39576.16,13962.18L39570.26,13963.28L39570.26,13964.39L39566.32,13965.50L39565.34,13963.28L39562.39,13964.39L39562.39,13964.39L39562.39,13964.39L39561.41,13961.07L39560.42,13957.76L39560.42,13955.54L39559.44,13952.23L39559.44,13952.23L39558.46,13951.12L39566.32,13950.02L39567.31,13954.44L39569.27,13959.97L39569.27,13959.97L39569.27,13961.07Z" /><path d="M39579.11,13948.91L39579.11,13948.91L39579.11,13950.02L39579.11,13951.12L39579.11,13952.23L39580.09,13953.33L39580.09,13954.44L39580.09,13955.54L39581.07,13957.76L39581.07,13957.76L39581.07,13958.86L39579.11,13958.86L39569.27,13961.07L39569.27,13961.07L39569.27,13959.97L39569.27,13959.97L39568.29,13954.44L39567.31,13954.44L39566.32,13950.02L39578.12,13946.70L39579.11,13948.91Z" /><path d="M39566.32,13982.08L39566.32,13982.08L39564.36,13982.08L39561.41,13983.19L39558.46,13985.40L39556.49,13977.66L39556.49,13975.45L39555.51,13973.24L39561.41,13972.13L39561.41,13974.34L39565.34,13974.34L39564.36,13971.02L39569.27,13969.92L39572.22,13980.98L39566.32,13982.08Z" /><path d="M39571.24,13990.93L39570.26,13988.72L39575.17,13987.61L39584.02,13985.40L39585.99,13993.14L39577.14,13995.35L39566.32,13997.56L39566.32,13996.46L39565.34,13993.14L39571.24,13992.03L39571.24,13990.93Z" /><path d="M39576.16,13989.82L39576.16,13992.03L39579.11,13992.03L39578.12,13989.82L39576.16,13989.82Z" /><path d="M39577.14,13995.35L39585.99,13993.14L39586.97,13997.56L39586.97,14000.88L39580.09,14003.09L39578.12,14003.09L39578.12,14003.09L39568.29,14005.30L39568.29,14005.30L39567.31,14001.99L39566.32,13997.56L39577.14,13995.35Z" /><path d="M39584.02,14001.99L39586.97,14000.88L39587.96,14004.20L39587.96,14006.41L39588.94,14008.62L39585.01,14009.73L39579.11,14010.83L39578.12,14007.51L39578.12,14006.41L39578.12,14003.09L39580.09,14003.09L39584.02,14001.99Z" /><path d="M39580.09,14018.57L39584.02,14017.47L39585.01,14021.89L39584.02,14021.89L39584.02,14022.99L39585.01,14021.89L39585.01,14024.10L39584.02,14024.10L39584.02,14025.21L39585.01,14025.21L39585.99,14028.52L39582.06,14028.52L39582.06,14026.31L39580.09,14027.42L39581.07,14029.63L39578.12,14029.63L39578.12,14026.31L39577.14,14022.99L39576.16,14019.68L39580.09,14018.57Z" /><path d="M39592.87,14024.10L39592.87,14027.42L39585.99,14028.52L39585.01,14025.21L39585.01,14024.10L39585.01,14021.89L39585.01,14021.89L39584.02,14017.47L39590.91,14016.36L39591.89,14019.68L39591.89,14021.89L39591.89,14021.89L39592.87,14024.10Z" /><path d="M39606.64,14022.99L39607.62,14027.42L39608.61,14030.73L39608.61,14030.73L39608.61,14032.95L39609.59,14034.05L39609.59,14037.37L39599.76,14039.58L39598.77,14036.26L39597.79,14029.63L39595.82,14021.89L39601.72,14019.68L39605.66,14018.57L39605.66,14020.78L39606.64,14022.99Z" /><path d="M39608.61,14020.78L39609.59,14019.68L39610.57,14019.68L39612.54,14019.68L39615.49,14018.57L39616.47,14020.78L39617.46,14026.31L39618.44,14029.63L39617.46,14029.63L39618.44,14034.05L39615.49,14035.16L39609.59,14037.37L39609.59,14034.05L39608.61,14032.95L39608.61,14030.73L39607.62,14028.52L39607.62,14027.42L39606.64,14022.99L39605.66,14020.78L39608.61,14020.78Z" /><path d="M39618.44,14019.68L39621.39,14019.68L39627.29,14017.47L39629.26,14027.42L39626.31,14028.52L39626.31,14029.63L39622.37,14029.63L39622.37,14028.52L39620.41,14029.63L39618.44,14029.63L39616.47,14020.78L39618.44,14019.68Z" /><path d="M39540.76,14044.00L39541.74,14047.32L39543.71,14051.74L39542.72,14052.85L39536.82,14053.96L39535.84,14052.85L39531.91,14038.48L39538.79,14035.16L39540.76,14044.00Z" /><path d="M39533.87,14046.22L39535.84,14052.85L39534.86,14053.96L39535.84,14053.96L39532.89,14055.06L39532.89,14053.96L39529.94,14055.06L39529.94,14055.06L39526.99,14056.17L39526.99,14056.17L39526.01,14056.17L39524.04,14048.43L39524.04,14048.43L39524.04,14047.32L39523.06,14044.00L39522.08,14041.79L39531.91,14038.48L39533.87,14046.22Z" /><path d="M39510.28,14051.74L39515.19,14049.53L39515.19,14050.64L39516.18,14052.85L39517.16,14055.06L39518.14,14058.38L39518.14,14058.38L39518.14,14059.48L39515.19,14060.59L39515.19,14059.48L39513.23,14060.59L39514.21,14061.70L39510.28,14062.80L39510.28,14061.70L39510.28,14061.70L39506.34,14052.85L39510.28,14051.74Z" /><path d="M39502.41,14065.01L39501.43,14066.12L39494.54,14068.33L39493.56,14068.33L39491.59,14063.91L39489.63,14058.38L39489.63,14058.38L39497.49,14053.96L39502.41,14065.01Z" /><path d="M39491.59,14063.91L39493.56,14068.33L39493.56,14069.44L39488.64,14070.54L39488.64,14070.54L39484.71,14071.65L39484.71,14071.65L39484.71,14070.54L39482.74,14065.01L39482.74,14065.01L39480.78,14062.80L39481.76,14062.80L39481.76,14061.70L39489.63,14058.38L39491.59,14063.91L39491.59,14063.91Z" /><path d="M39484.71,14060.59L39485.69,14063.91L39488.64,14062.80L39487.66,14059.48L39484.71,14060.59Z" /><path d="M39473.89,14065.01L39481.76,14061.70L39481.76,14062.80L39480.78,14062.80L39482.74,14065.01L39484.71,14071.65L39484.71,14071.65L39482.74,14071.65L39475.86,14074.96L39472.91,14069.44L39471.93,14066.12L39473.89,14065.01Z" /><path d="M39467.99,14067.22L39471.93,14066.12L39472.91,14069.44L39475.86,14074.96L39468.98,14077.18L39467.01,14078.28L39463.08,14069.44L39467.99,14067.22Z" /><path d="M39464.06,14079.39L39461.11,14080.49L39459.14,14081.60L39456.19,14080.49L39455.21,14078.28L39455.21,14078.28L39454.23,14074.96L39455.21,14072.75L39463.08,14069.44L39467.01,14078.28L39464.06,14079.39Z" /><path d="M39560.42,14040.69L39563.37,14039.58L39563.37,14036.26L39566.32,14035.16L39566.32,14038.48L39568.29,14046.22L39568.29,14046.22L39568.29,14047.32L39565.34,14047.32L39565.34,14047.32L39562.39,14047.32L39563.37,14048.43L39560.42,14048.43L39559.44,14048.43L39559.44,14048.43L39558.46,14045.11L39557.47,14042.90L39557.47,14041.79L39556.49,14038.48L39559.44,14037.37L39560.42,14040.69Z" /><path d="M39540.76,14034.05L39540.76,14032.95L39546.66,14030.73L39546.66,14031.84L39546.66,14031.84L39546.66,14031.84L39547.64,14035.16L39547.64,14036.26L39548.62,14037.37L39548.62,14038.48L39549.61,14040.69L39551.57,14049.53L39551.57,14049.53L39550.59,14049.53L39550.59,14050.64L39543.71,14051.74L39543.71,14051.74L39543.71,14051.74L39543.71,14051.74L39541.74,14047.32L39540.76,14044.00L39540.76,14042.90L39539.77,14037.37L39538.79,14035.16L39540.76,14034.05L39540.76,14034.05Z" /><path d="M39420.79,14006.41L39418.83,14000.88L39422.76,13999.77L39424.73,14004.20L39420.79,14006.41Z" /><path d="M39565.34,14032.95L39566.32,14035.16L39563.37,14036.26L39559.44,14037.37L39556.49,14038.48L39556.49,14035.16L39555.51,14032.95L39554.52,14030.73L39554.52,14028.52L39563.37,14024.10L39565.34,14032.95Z" /><path d="M39585.01,13977.66L39572.22,13980.98L39569.27,13969.92L39569.27,13967.71L39570.26,13966.60L39576.16,13965.50L39583.04,13964.39L39583.04,13968.81L39585.01,13977.66Z" /><path d="M39575.17,13968.81L39579.11,13968.81L39579.11,13966.60L39577.14,13965.50L39576.16,13966.60L39575.17,13966.60L39575.17,13968.81Z" /><path d="M39458.16,14006.41L39455.21,14000.88L39461.11,13997.56L39463.08,13997.56L39463.08,13997.56L39464.06,13997.56L39465.04,13998.67L39464.06,13998.67L39465.04,13998.67L39466.03,14003.09L39458.16,14006.41Z" /><path d="M39450.29,13994.25L39444.39,13997.56L39444.39,13997.56L39442.43,13992.03L39448.33,13989.82L39450.29,13994.25Z" /><path d="M39447.34,14022.99L39442.43,14025.21L39440.46,14025.21L39439.48,14022.99L39436.53,14016.36L39445.38,14010.83L39446.36,14011.94L39446.36,14013.04L39450.29,14021.89L39447.34,14022.99Z" /><path d="M39470.94,13996.46L39470.94,13995.35L39469.96,13995.35L39465.04,13983.19L39471.93,13979.87L39472.91,13982.08L39474.88,13986.51L39475.86,13988.72L39477.83,13993.14L39473.89,13995.35L39470.94,13996.46Z" /><path d="M39578.12,14006.41L39578.12,14006.41L39578.12,14007.51L39579.11,14010.83L39577.14,14010.83L39574.19,14011.94L39570.26,14013.04L39569.27,14008.62L39569.27,14007.51L39568.29,14005.30L39568.29,14005.30L39578.12,14003.09L39578.12,14003.09L39578.12,14006.41Z" /><path d="M39567.31,14098.19L39568.29,14099.29L39568.29,14100.40L39570.26,14103.71L39569.27,14103.71L39565.34,14105.93L39565.34,14104.82L39565.34,14104.82L39565.34,14104.82L39562.39,14105.93L39562.39,14105.93L39561.41,14105.93L39560.42,14104.82L39559.44,14102.61L39559.44,14102.61L39558.46,14100.40L39558.46,14099.29L39557.47,14097.08L39565.34,14093.76L39567.31,14098.19Z" /><path d="M39599.76,14087.13L39599.76,14088.23L39600.74,14091.55L39600.74,14091.55L39601.72,14095.97L39595.82,14097.08L39594.84,14093.76L39594.84,14092.66L39593.86,14089.34L39593.86,14086.02L39592.87,14082.70L39594.84,14082.70L39598.77,14081.60L39599.76,14087.13Z" /><path d="M39603.69,14080.49L39608.61,14079.39L39611.56,14094.87L39609.59,14094.87L39605.66,14094.87L39605.66,14095.97L39603.69,14097.08L39603.69,14095.97L39601.72,14095.97L39600.74,14091.55L39598.77,14081.60L39603.69,14080.49Z" /><path d="M39604.67,14087.13L39608.61,14086.02L39608.61,14082.70L39603.69,14083.81L39604.67,14087.13Z" /><path d="M39573.21,14090.44L39578.12,14088.23L39582.06,14087.13L39592.87,14082.70L39593.86,14086.02L39593.86,14089.34L39594.84,14093.76L39595.82,14097.08L39591.89,14097.08L39591.89,14097.08L39588.94,14098.19L39588.94,14098.19L39586.97,14099.29L39583.04,14100.40L39581.07,14100.40L39580.09,14100.40L39580.09,14100.40L39578.12,14101.50L39575.17,14102.61L39572.22,14102.61L39570.26,14103.71L39568.29,14099.29L39571.24,14099.29L39569.27,14095.97L39566.32,14097.08L39565.34,14093.76L39573.21,14090.44Z" /><path d="M39577.14,14097.08L39576.16,14093.76L39574.19,14093.76L39573.21,14094.87L39574.19,14098.19L39577.14,14097.08Z" /><path d="M39603.69,13993.14L39611.56,13992.03L39618.44,13990.93L39623.36,13989.82L39627.29,13986.51L39628.27,13990.93L39624.34,13993.14L39614.51,13997.56L39612.54,13998.67L39612.54,13998.67L39609.59,13999.77L39609.59,13999.77L39609.59,14000.88L39604.67,14001.99L39604.67,14001.99L39604.67,13998.67L39603.69,13996.46L39602.71,13996.46L39602.71,13997.56L39599.76,13998.67L39598.77,13997.56L39597.79,13997.56L39596.81,13994.25L39598.77,13994.25L39601.72,13993.14L39603.69,13993.14Z" /><path d="M39621.39,14001.99L39621.39,14001.99L39623.36,14000.88L39628.27,13998.67L39630.24,14000.88L39633.19,13999.77L39633.19,14000.88L39634.17,14003.09L39635.16,14007.51L39632.21,14008.62L39632.21,14008.62L39630.24,14008.62L39627.29,14009.73L39624.34,14010.83L39623.36,14009.73L39623.36,14009.73L39620.41,14010.83L39620.41,14010.83L39620.41,14010.83L39617.46,14011.94L39617.46,14010.83L39616.47,14010.83L39614.51,14011.94L39613.52,14010.83L39610.57,14010.83L39609.59,14007.51L39621.39,14001.99Z" /><path d="M39644.01,13989.82L39647.94,13987.61L39649.91,13992.03L39649.91,13992.03L39650.89,13993.14L39643.02,13997.56L39642.04,13995.35L39640.07,13992.03L39640.07,13989.82L39643.02,13988.72L39644.01,13989.82Z" /><path d="M39650.89,13985.40L39654.82,13983.19L39657.77,13982.08L39659.74,13986.51L39661.70,13989.82L39662.69,13992.03L39658.75,13994.25L39657.77,13995.35L39652.85,13997.56L39651.87,13995.35L39650.89,13993.14L39649.91,13992.03L39649.91,13992.03L39647.94,13987.61L39646.96,13986.51L39650.89,13985.40Z" /><path d="M39668.59,13989.82L39672.52,13987.61L39676.45,13992.03L39672.52,13995.35L39669.57,13996.46L39666.62,13998.67L39665.64,13998.67L39662.69,14000.88L39661.70,13999.77L39658.75,13994.25L39662.69,13992.03L39664.65,13989.82L39667.60,13988.72L39668.59,13989.82Z" /><path d="M39665.64,13998.67L39666.62,13998.67L39669.57,13996.46L39672.52,13995.35L39676.45,13992.03L39679.40,13997.56L39672.52,14003.09L39674.49,14005.30L39665.64,14010.83L39661.70,14004.20L39660.72,14001.99L39662.69,14000.88L39665.64,13998.67Z" /><path d="M39656.79,14003.09L39660.72,14001.99L39661.70,14004.20L39665.64,14010.83L39667.60,14014.15L39663.67,14016.36L39660.72,14018.57L39657.77,14014.15L39656.79,14013.04L39652.85,14005.30L39656.79,14003.09Z" /><path d="M39667.60,14014.15L39665.64,14010.83L39674.49,14005.30L39675.47,14007.51L39681.37,14001.99L39686.29,14008.62L39679.40,14014.15L39678.42,14015.25L39670.55,14019.68L39667.60,14014.15Z" /><path d="M39673.50,14025.21L39672.52,14022.99L39670.55,14019.68L39678.42,14015.25L39681.37,14020.78L39673.50,14025.21Z" /><path d="M39681.37,14029.63L39685.30,14027.42L39685.30,14027.42L39691.20,14037.37L39691.20,14038.48L39691.20,14038.48L39692.19,14040.69L39692.19,14041.79L39687.27,14045.11L39686.29,14045.11L39684.32,14042.90L39681.37,14037.37L39681.37,14037.37L39679.40,14034.05L39677.44,14031.84L39677.44,14031.84L39681.37,14029.63Z" /><path d="M39677.44,14031.84L39673.50,14025.21L39681.37,14020.78L39685.30,14027.42L39677.44,14031.84Z" /><path d="M39635.16,14037.37L39637.12,14036.26L39645.97,14031.84L39652.85,14029.63L39655.80,14028.52L39657.77,14027.42L39659.74,14026.31L39660.72,14028.52L39660.72,14028.52L39661.70,14029.63L39661.70,14030.73L39662.69,14032.95L39662.69,14032.95L39655.80,14036.26L39656.79,14038.48L39653.84,14039.58L39652.85,14039.58L39652.85,14039.58L39651.87,14038.48L39640.07,14044.00L39640.07,14044.00L39640.07,14045.11L39640.07,14045.11L39639.09,14045.11L39629.26,14047.32L39626.31,14041.79L39626.31,14040.69L39630.24,14039.58L39635.16,14037.37Z" /><path d="M39670.55,14026.31L39670.55,14026.31L39671.54,14028.52L39672.52,14030.73L39673.50,14032.95L39671.54,14032.95L39666.62,14035.16L39663.67,14029.63L39661.70,14030.73L39659.74,14026.31L39663.67,14025.21L39665.64,14024.10L39667.60,14022.99L39668.59,14022.99L39668.59,14022.99L39670.55,14026.31Z" /><path d="M39623.36,14057.27L39626.31,14057.27L39629.26,14056.17L39628.27,14053.96L39630.24,14053.96L39634.17,14052.85L39633.19,14050.64L39639.09,14049.53L39640.07,14051.74L39644.01,14050.64L39643.02,14048.43L39648.92,14047.32L39649.91,14049.53L39652.85,14048.43L39654.82,14047.32L39655.80,14049.53L39659.74,14049.53L39663.67,14048.43L39667.60,14047.32L39667.60,14044.00L39676.45,14042.90L39676.45,14044.00L39677.44,14045.11L39677.44,14046.22L39678.42,14048.43L39679.40,14050.64L39679.40,14051.74L39679.40,14051.74L39665.64,14055.06L39665.64,14055.06L39657.77,14057.27L39657.77,14056.17L39657.77,14057.27L39657.77,14057.27L39650.89,14059.48L39649.91,14058.38L39649.91,14058.38L39647.94,14059.48L39647.94,14059.48L39641.06,14061.70L39640.07,14060.59L39638.11,14061.70L39638.11,14061.70L39631.22,14063.91L39631.22,14062.80L39628.27,14063.91L39628.27,14063.91L39628.27,14063.91L39624.34,14065.01L39624.34,14065.01L39623.36,14063.91L39623.36,14061.70L39622.37,14058.38L39623.36,14057.27Z" /><path d="M39580.09,13946.70L39587.96,13944.49L39588.94,13950.02L39587.96,13950.02L39587.96,13951.12L39587.96,13954.44L39586.97,13954.44L39582.06,13955.54L39581.07,13955.54L39580.09,13955.54L39580.09,13954.44L39579.11,13952.23L39579.11,13951.12L39579.11,13950.02L39579.11,13948.91L39579.11,13948.91L39578.12,13946.70L39580.09,13946.70Z" /><path d="M39591.89,13945.59L39593.86,13954.44L39588.94,13955.54L39587.96,13954.44L39587.96,13951.12L39587.96,13950.02L39588.94,13950.02L39587.96,13944.49L39591.89,13943.38L39591.89,13945.59Z" /><path d="M39599.76,13947.80L39600.74,13951.12L39601.72,13952.23L39596.81,13953.33L39593.86,13954.44L39591.89,13945.59L39591.89,13943.38L39597.79,13941.17L39599.76,13947.80Z" /><path d="M39599.76,13947.80L39597.79,13941.17L39600.74,13941.17L39606.64,13937.85L39610.57,13947.80L39608.61,13948.91L39600.74,13951.12L39599.76,13947.80Z" /><path d="M39610.57,13947.80L39606.64,13937.85L39608.61,13937.85L39612.54,13936.75L39615.49,13935.64L39616.47,13938.96L39618.44,13942.28L39618.44,13942.28L39618.44,13944.49L39616.47,13945.59L39611.56,13947.80L39610.57,13947.80Z" /><path d="M39617.46,13934.54L39620.41,13934.54L39623.36,13935.64L39624.34,13940.06L39625.32,13942.28L39619.42,13944.49L39618.44,13944.49L39618.44,13942.28L39618.44,13942.28L39616.47,13938.96L39615.49,13935.64L39617.46,13934.54Z" /><path d="M39619.42,13951.12L39616.47,13945.59L39618.44,13944.49L39619.42,13944.49L39625.32,13942.28L39626.31,13944.49L39628.27,13947.80L39622.37,13950.02L39621.39,13950.02L39620.41,13951.12L39619.42,13951.12Z" /><path d="M39629.26,13948.91L39629.26,13948.91L39630.24,13951.12L39629.26,13954.44L39627.29,13956.65L39625.32,13957.76L39625.32,13957.76L39624.34,13957.76L39624.34,13957.76L39623.36,13955.54L39622.37,13955.54L39620.41,13951.12L39621.39,13950.02L39622.37,13950.02L39628.27,13947.80L39629.26,13948.91Z" /><path d="M39622.37,13955.54L39623.36,13955.54L39624.34,13957.76L39617.46,13963.28L39615.49,13961.07L39614.51,13958.86L39614.51,13957.76L39613.52,13956.65L39615.49,13955.54L39614.51,13954.44L39619.42,13951.12L39620.41,13951.12L39622.37,13955.54Z" /><path d="M39610.57,13952.23L39612.54,13955.54L39612.54,13955.54L39613.52,13956.65L39614.51,13957.76L39614.51,13958.86L39615.49,13961.07L39617.46,13963.28L39613.52,13965.50L39608.61,13968.81L39603.69,13958.86L39602.71,13956.65L39601.72,13953.33L39601.72,13952.23L39600.74,13951.12L39608.61,13948.91L39610.57,13951.12L39610.57,13952.23Z" /><path d="M39597.79,13953.33L39597.79,13953.33L39601.72,13952.23L39601.72,13953.33L39602.71,13956.65L39603.69,13958.86L39603.69,13958.86L39601.72,13958.86L39599.76,13959.97L39600.74,13964.39L39604.67,13962.18L39607.62,13969.92L39603.69,13971.02L39601.72,13966.60L39598.77,13967.71L39597.79,13967.71L39597.79,13968.81L39595.82,13959.97L39595.82,13959.97L39594.84,13956.65L39593.86,13954.44L39593.86,13954.44L39595.82,13953.33L39596.81,13953.33L39597.79,13953.33Z" /><path d="M39596.81,13966.60L39597.79,13968.81L39597.79,13967.71L39601.72,13966.60L39601.72,13967.71L39603.69,13971.02L39603.69,13971.02L39603.69,13972.13L39599.76,13974.34L39599.76,13974.34L39593.86,13976.55L39589.92,13977.66L39589.92,13975.45L39589.92,13975.45L39588.94,13974.34L39588.94,13973.24L39588.94,13973.24L39588.94,13971.02L39588.94,13971.02L39587.96,13969.92L39587.96,13967.71L39586.97,13965.50L39586.97,13964.39L39586.97,13962.18L39593.86,13961.07L39595.82,13959.97L39596.81,13966.60Z" /><path d="M39585.99,13962.18L39585.99,13959.97L39587.96,13959.97L39586.97,13954.44L39586.97,13954.44L39587.96,13954.44L39587.96,13954.44L39588.94,13955.54L39593.86,13954.44L39593.86,13954.44L39594.84,13956.65L39594.84,13956.65L39595.82,13959.97L39595.82,13959.97L39593.86,13961.07L39589.92,13961.07L39586.97,13962.18L39586.97,13962.18L39586.97,13965.50L39587.96,13967.71L39587.96,13967.71L39587.96,13969.92L39588.94,13971.02L39588.94,13972.13L39588.94,13973.24L39588.94,13974.34L39589.92,13975.45L39589.92,13977.66L39585.01,13977.66L39584.02,13973.24L39583.04,13968.81L39583.04,13968.81L39583.04,13964.39L39582.06,13963.28L39585.99,13962.18Z" /><path d="M39612.54,13974.34L39617.46,13971.02L39619.42,13973.24L39620.41,13975.45L39623.36,13979.87L39623.36,13979.87L39623.36,13980.98L39618.44,13983.19L39615.49,13984.29L39615.49,13984.29L39612.54,13979.87L39610.57,13977.66L39610.57,13976.55L39612.54,13974.34Z" /><path d="M39625.32,13971.02L39629.26,13977.66L39627.29,13977.66L39627.29,13978.77L39624.34,13980.98L39623.36,13979.87L39623.36,13979.87L39620.41,13974.34L39619.42,13973.24L39617.46,13971.02L39623.36,13966.60L39624.34,13968.81L39625.32,13969.92L39625.32,13971.02Z" /><path d="M39644.99,13962.18L39644.99,13962.18L39648.92,13967.71L39642.04,13972.13L39640.07,13968.81L39639.09,13966.60L39642.04,13964.39L39644.01,13967.71L39644.99,13967.71L39643.02,13963.28L39640.07,13964.39L39638.11,13961.07L39643.02,13957.76L39644.99,13962.18Z" /><path d="M39647.94,13982.08L39648.92,13984.29L39642.04,13987.61L39641.06,13987.61L39640.07,13984.29L39640.07,13982.08L39653.84,13975.45L39656.79,13980.98L39650.89,13984.29L39648.92,13980.98L39647.94,13982.08Z" /><path d="M39637.12,13976.55L39637.12,13976.55L39640.07,13974.34L39643.02,13974.34L39643.02,13974.34L39644.01,13973.24L39644.99,13976.55L39646.96,13975.45L39645.97,13973.24L39645.97,13972.13L39649.91,13971.02L39649.91,13969.92L39650.89,13969.92L39650.89,13969.92L39653.84,13975.45L39640.07,13982.08L39639.09,13980.98L39639.09,13980.98L39637.12,13977.66L39637.12,13976.55Z" /><path d="M39638.11,13964.39L39638.11,13965.50L39640.07,13968.81L39643.02,13974.34L39640.07,13974.34L39637.12,13976.55L39636.14,13976.55L39636.14,13976.55L39633.19,13972.13L39631.22,13968.81L39631.22,13968.81L39631.22,13968.81L39638.11,13964.39Z" /><path d="M39627.29,13964.39L39628.27,13963.28L39628.27,13964.39L39629.26,13964.39L39631.22,13968.81L39631.22,13968.81L39633.19,13972.13L39634.17,13974.34L39634.17,13974.34L39634.17,13974.34L39630.24,13976.55L39631.22,13976.55L39629.26,13977.66L39629.26,13977.66L39629.26,13977.66L39625.32,13971.02L39625.32,13969.92L39624.34,13968.81L39623.36,13966.60L39627.29,13964.39L39627.29,13964.39Z" /></g></svg>