<svg xmlns="http://www.w3.org/2000/svg" viewBox="38866.32 8380.49 549.34 384.51" preserveAspectRatio="xMidYMid meet" data-origin="38866.32,8380.49"><path d="M39269.86,8590.27L39267.20,8594.70L39403.59,8688.46L39410.67,8693.88L39401.23,8717.21L39395.92,8760.00L39342.03,8753.81L39236.13,8739.88L39225.80,8740.21L39200.93,8726.61L39143.40,8690.78L39099.84,8660.82L39066.02,8640.14L39051.46,8627.54L39041.34,8621.90L39004.95,8604.65L38946.64,8576.67L38950.09,8570.15L38886.07,8537.42L38871.32,8530.23L38887.06,8504.69L38917.34,8456.70L38925.31,8440.22L38936.22,8409.71L38938.68,8403.51L38940.45,8396.99L38941.04,8389.03L38940.45,8385.49L39010.07,8428.83L39235.83,8571.70L39269.86,8590.27Z" fill="#f5eedd" stroke="#aaa" stroke-width="2" stroke-dasharray="4 3"/><g fill="#2d2d2d" stroke="#111" stroke-width="0.6" fill-opacity="0.85"><path d="M39050.51,8562.47L39036.79,8556.28L39024.11,8550.57L39031.24,8535.28L39033.56,8529.84L39044.30,8535.33L39060.45,8543.39L39055.54,8553.06L39053.03,8557.90L39051.63,8560.35L39050.51,8562.47Z" /><path d="M38986.31,8586.80L38991.31,8589.48L38994.01,8589.17L38998.33,8580.93L39000.10,8577.55L38992.70,8574.28L38986.31,8586.80Z" /><path d="M38975.68,8581.26L38986.31,8586.80L38992.70,8574.28L38982.07,8568.99L38975.68,8581.26Z" /><path d="M38965.13,8574.80L38975.68,8581.26L38982.07,8568.99L38982.49,8566.89L38972.28,8561.67L38965.13,8574.80Z" /><path d="M39025.96,8608.56L39027.43,8606.18L39024.08,8604.08L39022.46,8606.41L39025.96,8608.56Z" /><path d="M39008.58,8580.81L39012.33,8582.50L39010.58,8586.34L39019.24,8590.39L39036.79,8556.28L39024.11,8550.57L39008.58,8580.81Z" /><path d="M39030.55,8611.45L39040.33,8617.60L39045.05,8610.31L39035.10,8604.15L39030.55,8611.45Z" /><path d="M39000.10,8577.55L39003.00,8571.52L38985.69,8561.11L38982.49,8566.89L38982.07,8568.99L39000.10,8577.55Z" /><path d="M38964.60,8557.70L38966.09,8554.37L38969.13,8548.45L38975.87,8534.72L38995.47,8543.00L38992.43,8548.65L38989.08,8554.93L38985.69,8561.11L38982.49,8566.89L38972.28,8561.67L38964.60,8557.70Z" /><path d="M39003.00,8571.52L39006.20,8564.81L38989.08,8554.93L38985.69,8561.11L39003.00,8571.52Z" /><path d="M39006.20,8564.81L39008.91,8558.69L38992.43,8548.65L38989.08,8554.93L39006.20,8564.81Z" /><path d="M38992.43,8548.65L39008.91,8558.69L39012.85,8550.27L39011.71,8549.60L38995.47,8543.00L38992.43,8548.65Z" /><path d="M39125.86,8525.30L39059.19,8622.20L39059.19,8627.85L39077.96,8639.15L39147.18,8536.81L39130.30,8524.88L39125.86,8525.30Z" /><path d="M39158.36,8543.29L39177.46,8555.72L39177.77,8559.20L39113.21,8655.89L39108.77,8656.10L39089.36,8644.38L39158.36,8543.29Z" /><path d="M39293.40,8645.42L39297.40,8644.59L39314.28,8660.07L39306.69,8702.34L39283.27,8697.74L39293.40,8645.42Z" /><path d="M39329.47,8678.28L39323.56,8731.43L39346.14,8733.94L39351.21,8692.09L39335.17,8678.91L39329.47,8678.28Z" /><path d="M39355.22,8718.04L39351.63,8740.43L39392.56,8743.99L39394.25,8732.90L39392.63,8728.36L39383.28,8720.55L39355.22,8718.04Z" /><path d="M39201.50,8689.37L39211.72,8696.38L39223.75,8699.52L39229.34,8698.58L39237.43,8661.05L39236.17,8660.77L39232.78,8659.78L39234.51,8652.13L39230.71,8650.40L39201.50,8689.37Z" /><path d="M38959.97,8433.81L38996.81,8451.85L38984.45,8476.60L38947.13,8458.09L38959.97,8433.81Z" /><path d="M38991.09,8506.46L38991.09,8505.35L38990.11,8504.25L38994.04,8498.72L38995.02,8498.72L38996.01,8495.40L38996.01,8495.40L38998.96,8488.77L38999.94,8489.87L39001.91,8486.55L39000.92,8485.45L39003.87,8479.92L39004.86,8479.92L39006.82,8476.60L39005.84,8475.50L39008.79,8469.97L39009.77,8469.97L39011.74,8465.55L39010.76,8465.55L39012.72,8461.12L39013.71,8462.23L39014.69,8460.02L39019.60,8458.91L39020.59,8460.02L39025.50,8463.33L39026.49,8462.23L39035.34,8467.76L39038.29,8468.86L39037.30,8469.97L39039.27,8471.07L39039.27,8469.97L39044.19,8473.29L39043.20,8474.39L39045.17,8475.50L39046.15,8478.81L39045.17,8481.03L39045.17,8482.13L39046.15,8482.13L39044.19,8485.45L39043.20,8484.34L39043.20,8486.55L39043.20,8487.66L39040.25,8493.19L39039.27,8493.19L39038.29,8496.51L39039.27,8496.51L39035.34,8503.14L39035.34,8502.03L39034.35,8504.25L39033.37,8506.46L39034.35,8506.46L39032.39,8509.78L39031.40,8513.09L39030.42,8511.99L39028.45,8515.30L39029.44,8516.41L39026.49,8523.04L39025.50,8521.94L39021.57,8528.57L39021.57,8528.57L39006.82,8520.83L39008.79,8516.41L39005.84,8514.20L39003.87,8519.73L38988.14,8511.99L38991.09,8506.46Z" /><path d="M39007.81,8507.56L39003.87,8505.35L39002.89,8508.67L39005.84,8510.88L39007.81,8507.56Z" /><path d="M39010.76,8500.93L39012.72,8497.61L39008.79,8496.51L39007.81,8498.72L39010.76,8500.93Z" /><path d="M39013.71,8486.55L39012.72,8489.87L39015.67,8490.98L39016.66,8487.66L39013.71,8486.55Z" /><path d="M39014.69,8510.88L39012.72,8514.20L39015.67,8515.30L39017.64,8511.99L39014.69,8510.88Z" /><path d="M39022.55,8478.81L39018.62,8476.60L39017.64,8479.92L39020.59,8481.03L39022.55,8478.81Z" /><path d="M39019.60,8500.93L39017.64,8504.25L39020.59,8505.35L39022.55,8503.14L39019.60,8500.93Z" /><path d="M39024.52,8490.98L39022.55,8494.29L39025.50,8495.40L39027.47,8493.19L39024.52,8490.98Z" /><path d="M39031.40,8483.24L39028.45,8482.13L39027.47,8485.45L39030.42,8486.55L39031.40,8483.24Z" /><path d="M39152.35,8682.27L39153.33,8682.27L39154.32,8680.06L39154.32,8680.06L39160.22,8672.32L39160.22,8671.21L39161.20,8670.11L39162.18,8670.11L39165.13,8665.68L39167.10,8662.37L39168.08,8661.26L39169.07,8660.16L39169.07,8659.05L39174.97,8652.42L39174.97,8651.31L39175.95,8650.20L39176.93,8649.10L39181.85,8641.36L39182.83,8641.36L39183.82,8640.25L39183.82,8639.15L39188.73,8631.41L39189.72,8631.41L39190.70,8630.30L39191.68,8629.19L39196.60,8621.45L39197.58,8620.35L39197.58,8619.24L39198.57,8618.14L39203.48,8611.50L39204.47,8610.40L39205.45,8609.29L39206.43,8608.19L39211.35,8601.55L39212.33,8600.45L39212.33,8599.34L39213.32,8598.23L39215.28,8596.02L39225.12,8602.66L39225.12,8605.97L39225.12,8607.08L39225.12,8608.19L39223.15,8607.08L39221.18,8609.29L39223.15,8610.40L39220.20,8613.71L39223.15,8617.03L39227.08,8611.50L39227.08,8612.61L39228.07,8613.71L39228.07,8614.82L39228.07,8614.82L39229.05,8615.93L39229.05,8617.03L39230.03,8618.14L39230.03,8618.14L39230.03,8619.24L39231.02,8620.35L39231.02,8620.35L39231.02,8621.45L39232.00,8621.45L39232.00,8622.56L39232.00,8622.56L39229.05,8626.98L39227.08,8628.09L39221.18,8636.94L39220.20,8639.15L39214.30,8646.89L39213.32,8649.10L39207.42,8656.84L39205.45,8659.05L39199.55,8666.79L39198.57,8669.00L39192.67,8676.74L39190.70,8678.95L39188.73,8682.27L39187.75,8683.38L39185.78,8686.69L39184.80,8686.69L39183.82,8688.90L39183.82,8688.90L39182.83,8690.01L39180.87,8693.33L39177.92,8696.65L39177.92,8696.65L39176.93,8698.86L39175.95,8698.86L39174.97,8701.07L39174.97,8701.07L39171.03,8702.17L39166.12,8697.75L39161.20,8694.43L39160.22,8693.33L39155.30,8690.01L39153.33,8688.90L39149.40,8686.69L39150.38,8685.59L39152.35,8682.27Z" /><path d="M39160.22,8684.48L39158.25,8686.69L39161.20,8688.90L39163.17,8685.59L39160.22,8684.48Z" /><path d="M39166.12,8692.22L39168.08,8688.90L39165.13,8687.80L39163.17,8690.01L39166.12,8692.22Z" /><path d="M39168.08,8674.53L39166.12,8676.74L39168.08,8678.95L39170.05,8675.64L39168.08,8674.53Z" /><path d="M39172.02,8692.22L39170.05,8691.12L39168.08,8693.33L39170.05,8695.54L39172.02,8692.22Z" /><path d="M39172.02,8676.74L39170.05,8680.06L39173.00,8682.27L39174.97,8678.95L39172.02,8676.74Z" /><path d="M39174.97,8663.47L39173.00,8666.79L39175.95,8669.00L39177.92,8665.68L39174.97,8663.47Z" /><path d="M39179.88,8682.27L39176.93,8680.06L39174.97,8683.38L39177.92,8685.59L39179.88,8682.27Z" /><path d="M39179.88,8666.79L39177.92,8670.11L39179.88,8672.32L39182.83,8669.00L39179.88,8666.79Z" /><path d="M39181.85,8653.52L39180.87,8656.84L39182.83,8657.94L39184.80,8655.73L39181.85,8653.52Z" /><path d="M39186.77,8672.32L39184.80,8670.11L39182.83,8673.42L39184.80,8675.64L39186.77,8672.32Z" /><path d="M39186.77,8656.84L39184.80,8660.16L39187.75,8662.37L39189.72,8659.05L39186.77,8656.84Z" /><path d="M39187.75,8646.89L39189.72,8647.99L39191.68,8645.78L39189.72,8643.57L39187.75,8646.89Z" /><path d="M39194.63,8662.37L39191.68,8660.16L39189.72,8663.47L39192.67,8665.68L39194.63,8662.37Z" /><path d="M39194.63,8646.89L39192.67,8650.20L39194.63,8651.31L39196.60,8649.10L39194.63,8646.89Z" /><path d="M39194.63,8636.94L39197.58,8638.04L39199.55,8635.83L39196.60,8633.62L39194.63,8636.94Z" /><path d="M39201.52,8652.42L39198.57,8650.20L39196.60,8653.52L39199.55,8654.63L39201.52,8652.42Z" /><path d="M39201.52,8636.94L39199.55,8640.25L39202.50,8641.36L39204.47,8639.15L39201.52,8636.94Z" /><path d="M39204.47,8623.67L39202.50,8625.88L39204.47,8628.09L39206.43,8625.88L39204.47,8623.67Z" /><path d="M39208.40,8642.46L39206.43,8640.25L39204.47,8643.57L39206.43,8644.68L39208.40,8642.46Z" /><path d="M39208.40,8626.98L39206.43,8629.19L39209.38,8631.41L39211.35,8629.19L39208.40,8626.98Z" /><path d="M39211.35,8613.71L39209.38,8615.93L39212.33,8618.14L39214.30,8615.93L39211.35,8613.71Z" /><path d="M39216.27,8632.51L39213.32,8630.30L39211.35,8633.62L39214.30,8634.72L39216.27,8632.51Z" /><path d="M39216.27,8617.03L39214.30,8619.24L39217.25,8621.45L39219.22,8619.24L39216.27,8617.03Z" /><path d="M39218.23,8603.76L39217.25,8605.97L39219.22,8608.19L39221.18,8604.87L39218.23,8603.76Z" /><path d="M39223.15,8622.56L39221.18,8620.35L39219.22,8622.56L39221.18,8624.77L39223.15,8622.56Z" /><path d="M39124.82,8662.37L39124.82,8662.37L39125.80,8660.16L39126.79,8660.16L39128.75,8657.94L39127.77,8657.94L39129.74,8655.73L39129.74,8655.73L39130.72,8654.63L39130.72,8653.52L39131.70,8651.31L39132.69,8652.42L39135.64,8646.89L39135.64,8646.89L39136.62,8644.68L39137.60,8644.68L39138.59,8643.57L39138.59,8643.57L39137.60,8642.46L39139.57,8640.25L39139.57,8641.36L39143.50,8635.83L39142.52,8635.83L39144.49,8633.62L39144.49,8633.62L39145.47,8631.41L39145.47,8631.41L39146.45,8629.19L39147.43,8629.19L39150.38,8624.77L39150.38,8624.77L39151.37,8622.56L39152.35,8622.56L39153.33,8620.35L39153.33,8620.35L39154.32,8618.14L39154.32,8618.14L39156.28,8615.93L39165.13,8621.45L39166.12,8622.56L39165.13,8623.67L39168.08,8626.98L39170.05,8624.77L39177.92,8630.30L39178.90,8630.30L39176.93,8632.51L39176.93,8633.62L39177.92,8633.62L39176.93,8635.83L39175.95,8635.83L39175.95,8635.83L39174.97,8635.83L39173.98,8636.94L39174.97,8638.04L39173.98,8640.25L39173.00,8639.15L39172.02,8640.25L39170.05,8642.46L39169.07,8643.57L39170.05,8644.68L39169.07,8646.89L39168.08,8645.78L39167.10,8646.89L39166.12,8647.99L39167.10,8649.10L39166.12,8650.20L39165.13,8650.20L39161.20,8654.63L39162.18,8655.73L39160.22,8657.94L39160.22,8656.84L39160.22,8656.84L39159.23,8657.94L39159.23,8659.05L39158.25,8659.05L39159.23,8659.05L39158.25,8661.26L39157.27,8661.26L39155.30,8663.47L39153.33,8665.68L39153.33,8665.68L39154.32,8666.79L39153.33,8669.00L39152.35,8667.90L39151.37,8669.00L39150.38,8670.11L39151.37,8670.11L39150.38,8672.32L39149.40,8672.32L39147.43,8674.53L39147.43,8674.53L39148.42,8674.53L39144.49,8680.06L39143.50,8680.06L39141.54,8682.27L39123.84,8670.11L39122.85,8670.11L39122.85,8670.11L39122.85,8669.00L39122.85,8669.00L39122.85,8669.00L39122.85,8667.90L39122.85,8667.90L39122.85,8667.90L39122.85,8666.79L39122.85,8666.79L39122.85,8666.79L39124.82,8662.37Z" /><path d="M39141.54,8667.90L39137.60,8664.58L39134.65,8669.00L39138.59,8671.21L39141.54,8667.90Z" /><path d="M39141.54,8659.05L39138.59,8663.47L39142.52,8665.68L39144.49,8662.37L39141.54,8659.05Z" /><path d="M39148.42,8656.84L39145.47,8653.52L39142.52,8657.94L39146.45,8660.16L39148.42,8656.84Z" /><path d="M39148.42,8647.99L39146.45,8652.42L39149.40,8654.63L39152.35,8651.31L39148.42,8647.99Z" /><path d="M39154.32,8646.89L39156.28,8644.68L39152.35,8642.46L39151.37,8644.68L39149.40,8646.89L39153.33,8649.10L39154.32,8646.89Z" /><path d="M39156.28,8636.94L39153.33,8640.25L39157.27,8643.57L39160.22,8639.15L39156.28,8636.94Z" /><path d="M39163.17,8633.62L39160.22,8631.41L39157.27,8635.83L39161.20,8638.04L39163.17,8633.62Z" /><path d="M39163.17,8625.88L39161.20,8629.19L39165.13,8632.51L39167.10,8628.09L39163.17,8625.88Z" /><path d="M39158.25,8612.61L39157.27,8612.61L39159.23,8610.40L39160.22,8611.50L39161.20,8609.29L39161.20,8609.29L39160.22,8608.19L39161.20,8607.08L39162.18,8607.08L39165.13,8602.66L39165.13,8601.55L39166.12,8599.34L39167.10,8600.45L39167.10,8600.45L39168.08,8598.23L39167.10,8598.23L39169.07,8596.02L39170.05,8596.02L39170.05,8596.02L39173.00,8590.49L39172.02,8590.49L39173.98,8588.28L39174.97,8589.39L39174.97,8588.28L39175.95,8587.18L39174.97,8586.07L39175.95,8584.97L39176.93,8584.97L39176.93,8584.97L39178.90,8582.75L39180.87,8579.44L39179.88,8579.44L39180.87,8577.23L39181.85,8578.33L39181.85,8577.23L39182.83,8576.12L39182.83,8575.01L39183.82,8572.80L39184.80,8573.91L39184.80,8573.91L39186.77,8570.59L39187.75,8570.59L39190.70,8569.49L39191.68,8569.49L39193.65,8570.59L39197.58,8572.80L39197.58,8573.91L39198.57,8573.91L39198.57,8572.80L39201.52,8575.01L39201.52,8576.12L39201.52,8576.12L39202.50,8577.23L39203.48,8577.23L39203.48,8577.23L39203.48,8576.12L39206.43,8578.33L39206.43,8579.44L39206.43,8579.44L39206.43,8579.44L39210.37,8581.65L39212.33,8583.86L39213.32,8583.86L39211.35,8584.97L39209.38,8588.28L39208.40,8589.39L39208.40,8589.39L39209.38,8590.49L39208.40,8592.71L39207.42,8591.60L39207.42,8591.60L39207.42,8591.60L39206.43,8592.71L39206.43,8593.81L39206.43,8593.81L39205.45,8593.81L39206.43,8593.81L39205.45,8596.02L39204.47,8596.02L39204.47,8596.02L39202.50,8598.23L39200.53,8600.45L39200.53,8600.45L39201.52,8601.55L39200.53,8602.66L39199.55,8602.66L39199.55,8602.66L39198.57,8603.76L39198.57,8603.76L39198.57,8603.76L39198.57,8604.87L39197.58,8607.08L39196.60,8605.97L39194.63,8608.19L39192.67,8611.50L39192.67,8611.50L39193.65,8611.50L39192.67,8613.71L39191.68,8613.71L39191.68,8613.71L39190.70,8614.82L39189.72,8614.82L39190.70,8615.93L39189.72,8618.14L39188.73,8617.03L39187.75,8619.24L39185.78,8621.45L39184.80,8622.56L39185.78,8622.56L39184.80,8624.77L39183.82,8623.67L39183.82,8624.77L39182.83,8624.77L39182.83,8625.88L39182.83,8625.88L39181.85,8628.09L39180.87,8628.09L39180.87,8628.09L39178.90,8630.30L39178.90,8630.30L39177.92,8630.30L39170.05,8624.77L39169.07,8624.77L39170.05,8622.56L39167.10,8620.35L39166.12,8622.56L39165.13,8621.45L39156.28,8615.93L39157.27,8614.82L39158.25,8613.71L39158.25,8612.61Z" /><path d="M39169.07,8618.14L39172.02,8620.35L39173.98,8617.03L39171.03,8614.82L39169.07,8618.14Z" /><path d="M39174.97,8609.29L39172.02,8612.61L39175.95,8614.82L39177.92,8611.50L39174.97,8609.29Z" /><path d="M39179.88,8609.29L39181.85,8605.97L39177.92,8603.76L39175.95,8607.08L39179.88,8609.29Z" /><path d="M39179.88,8601.55L39182.83,8603.76L39185.78,8600.45L39181.85,8598.23L39179.88,8601.55Z" /><path d="M39186.77,8598.23L39188.73,8594.92L39185.78,8592.71L39183.82,8596.02L39186.77,8598.23Z" /><path d="M39190.70,8592.71L39192.67,8589.39L39189.72,8587.18L39187.75,8590.49L39190.70,8592.71Z" /><path d="M39196.60,8583.86L39193.65,8581.65L39190.70,8584.97L39194.63,8587.18L39196.60,8583.86Z" /></g></svg>