<svg xmlns="http://www.w3.org/2000/svg" viewBox="42354.31 11601.95 592.31 1618.74" preserveAspectRatio="xMidYMid meet" data-origin="42354.31,11601.95"><g fill="#e8dcc0" fill-opacity="0.9" stroke="#333" stroke-width="3" stroke-linejoin="round"><path d="M42566.79,11680.71L42636.41,11687.45L42634.34,11698.18L42633.06,11708.68L42631.69,11721.40L42630.80,11734.11L42630.60,11740.64L42633.36,11751.03L42636.01,11759.77L42638.27,11771.27L42640.14,11783.98L42641.03,11790.51L42642.90,11798.25L42643.98,11802.45L42645.85,11808.20L42650.17,11819.37L42654.30,11831.86L42656.17,11837.39L42661.58,11846.35L42666.69,11853.31L42671.71,11858.29L42673.38,11858.95L42678.89,11859.50L42683.80,11859.39L42686.06,11860.94L42688.23,11863.15L42689.70,11866.14L42691.86,11875.43L42694.42,11889.80L42695.21,11893.56L42696.58,11896.10L42699.04,11895.88L42703.17,11894.11L42706.02,11893.78L42708.48,11894.56L42710.25,11895.99L42710.94,11899.53L42710.74,11904.07L42709.37,11908.05L42703.27,11916.23L42701.89,11919.99L42701.01,11920.76L42700.03,11922.53L42698.55,11929.05L42696.58,11941.00L42695.01,11954.71L42694.81,11959.46L42696.39,11968.75L42696.78,11972.73L42693.63,11984.45L42692.55,11988.65L42691.47,12006.46L42690.88,12015.41L42690.98,12020.83L42691.86,12025.81L42695.31,12037.53L42696.88,12042.84L42696.78,12051.79L42696.49,12057.98L42696.58,12063.51L42698.35,12075.01L42699.63,12081.20L42701.60,12086.51L42704.45,12091.71L42709.56,12097.68L42716.84,12107.41L42719.50,12111.83L42722.35,12117.58L42723.04,12119.13L42723.43,12121.56L42723.63,12128.31L42726.58,12138.81L42729.72,12146.78L42731.79,12155.95L42731.98,12161.70L42731.89,12167.01L42732.77,12177.96L42733.07,12188.46L42733.36,12193.66L42736.02,12203.39L42736.70,12210.13L42736.90,12215.88L42739.26,12230.59L42740.83,12241.09L42742.01,12254.47L42743.69,12266.19L42746.14,12277.47L42748.31,12289.42L42751.16,12297.38L42753.81,12307.33L42759.42,12319.60L42763.74,12329.78L42766.10,12334.75L42771.32,12343.71L42778.20,12355.76L42780.26,12359.41L42785.08,12372.12L42790.49,12379.09L42799.73,12389.60L42805.63,12397.34L42810.85,12407.29L42813.50,12411.71L42814.97,12417.24L42816.65,12428.19L42818.42,12437.92L42821.37,12446.43L42826.77,12455.39L42828.05,12458.15L42828.64,12458.81L42832.08,12461.14L42833.66,12463.57L42836.02,12469.10L42838.18,12469.32L42841.43,12470.76L42844.47,12474.52L42848.60,12487.01L42849.49,12491.43L42851.06,12495.41L42853.13,12498.40L42862.67,12505.70L42867.29,12510.34L42868.76,12512.89L42870.53,12514.65L42872.89,12514.54L42874.76,12512.33L42876.24,12508.35L42878.00,12506.14L42880.86,12506.03L42883.61,12507.03L42885.38,12509.02L42887.25,12510.34L42899.74,12512.22L42903.57,12513.22L42907.01,12514.43L42910.65,12516.20L42917.44,12521.40L42920.58,12524.39L42922.65,12527.70L42924.61,12531.68L42925.70,12535.88L42926.38,12541.86L42925.99,12548.82L42925.89,12549.82L42925.40,12552.36L42925.01,12554.35L42924.12,12556.89L42923.93,12563.31L42925.79,12572.04L42928.35,12581.99L42931.30,12594.71L42933.86,12602.23L42936.51,12611.96L42939.95,12623.68L42941.33,12632.19L42941.23,12642.59L42941.62,12653.31L42940.84,12658.62L42938.77,12662.05L42935.04,12665.15L42929.53,12666.58L42923.83,12667.14L42918.81,12667.14L42914.29,12665.48L42912.62,12663.93L42911.34,12662.16L42910.65,12659.73L42910.36,12657.18L42910.75,12651.99L42913.21,12648.67L42915.47,12648.01L42916.85,12647.68L42902.88,12582.88L42897.67,12584.65L42900.33,12599.58L42898.16,12601.12L42886.26,12602.89L42875.25,12604.66L42869.06,12605.44L42863.35,12606.98L42854.31,12606.98L42852.05,12606.54L42848.01,12604.55L42846.54,12603.22L42843.00,12592.50L42840.74,12588.52L42838.77,12586.53L42836.21,12585.31L42832.18,12585.09L42826.68,12586.42L42823.92,12587.85L42819.20,12592.39L42817.43,12593.94L42815.76,12598.91L42814.78,12601.12L42814.78,12604.88L42815.17,12605.88L42817.53,12607.32L42819.89,12609.86L42820.87,12611.30L42823.14,12616.05L42823.23,12617.60L42824.71,12620.36L42824.71,12625.34L42824.41,12627.55L42820.97,12639.27L42819.40,12644.80L42818.91,12648.23L42821.86,12646.24L42823.73,12645.57L42825.40,12646.24L42826.58,12648.56L42826.09,12655.53L42825.00,12662.27L42823.63,12665.48L42822.25,12667.25L42819.20,12668.79L42816.94,12673.00L42815.47,12677.53L42815.07,12686.71L42812.62,12693.67L42811.63,12695.22L42808.88,12697.77L42806.03,12701.75L42803.08,12703.52L42801.90,12704.95L42801.21,12706.50L42801.50,12711.26L42803.18,12718.44L42805.73,12730.16L42806.72,12737.90L42809.17,12750.62L42812.03,12763.11L42814.38,12769.53L42816.94,12775.28L42817.53,12780.59L42817.53,12788.99L42818.32,12793.30L42820.38,12800.05L42825.40,12805.46L42825.79,12807.68L42825.59,12809.45L42824.81,12810.99L42823.23,12811.77L42818.02,12816.52L42816.45,12817.74L42815.17,12819.51L42814.38,12821.94L42813.01,12823.49L42811.24,12824.48L42807.21,12826.25L42797.57,12827.47L42795.01,12828.80L42793.44,12830.01L42788.33,12856.55L42789.41,12865.95L42789.31,12877.23L42789.41,12886.18L42788.43,12893.48L42785.97,12897.46L42782.92,12899.45L42782.03,12901.44L42781.15,12907.41L42779.87,12912.17L42778.40,12916.15L42774.56,12921.24L42770.92,12924.66L42766.01,12930.74L42761.68,12940.92L42759.02,12950.98L42757.06,12961.37L42751.75,12968.67L42745.55,12975.97L42738.57,12981.72L42736.61,12983.71L42732.28,12986.47L42723.23,12990.68L42720.18,12991.45L42712.81,12994.21L42704.75,12996.54L42700.32,12999.08L42693.63,12999.85L42682.33,12999.85L42677.80,13000.07L42676.72,13001.07L42675.35,13004.39L42669.94,13012.90L42668.86,13015.11L42667.38,13016.88L42665.41,13018.87L42659.22,13023.41L42655.09,13027.61L42653.22,13028.93L42649.98,13030.37L42648.40,13031.15L42646.14,13034.46L42641.32,13039.66L42640.04,13042.65L42632.67,13050.72L42625.59,13057.90L42619.10,13065.64L42616.25,13068.96L42613.00,13074.71L42610.45,13076.92L42607.40,13081.24L42606.02,13085.44L42604.35,13090.19L42599.14,13097.93L42597.86,13100.70L42596.78,13105.45L42596.19,13112.20L42595.50,13114.96L42591.08,13121.93L42588.62,13124.69L42586.65,13127.46L42583.31,13134.20L42581.73,13137.96L42576.33,13147.47L42573.47,13153.22L42567.57,13162.18L42566.39,13164.17L42561.28,13166.93L42560.99,13168.92L42561.97,13175.67L42478.49,13215.69L42479.18,13212.93L42489.21,13153.44L42497.86,13100.25L42503.76,13062.33L42511.53,13016.44L42522.74,12949.98L42531.78,12890.27L42532.77,12888.06L42534.14,12879.55L42541.62,12830.34L42548.20,12787.00L42553.02,12758.69L42557.05,12691.35L42558.04,12639.49L42552.73,12593.05L42547.52,12553.91L42537.88,12514.21L42532.37,12490.55L42528.64,12475.84L42527.46,12470.43L42513.89,12409.28L42490.39,12311.53L42470.13,12226.72L42445.55,12130.96L42430.21,12063.73L42405.82,11965.43L42385.07,11876.97L42376.12,11840.04L42366.29,11799.13L42364.92,11793.71L42362.95,11780.22L42361.28,11768.50L42359.31,11756.23L42360.00,11739.97L42361.67,11717.08L42368.16,11633.49L42372.09,11606.95L42397.17,11617.13L42477.50,11651.29L42537.68,11674.29L42566.79,11680.71Z" /></g></svg>